0
SECTION
2
HEADER
9
$INSUNITS
70
4
0
ENDSEC
0
SECTION
2
TABLES
0
TABLE
2
LTYPE
0
LTYPE
72
65
70
64
2
CONTINUOUS
3
______
73
0
40
0
0
ENDTAB
0
TABLE
2
LAYER
0
ENDTAB
0
ENDSEC
0
SECTION
2
ENTITIES
0
LINE
8
0
10
51
20
-116
11
69
21
-116
0
LINE
8
0
10
69
20
-116
11
69
21
-134
0
LINE
8
0
10
69
20
-134
11
51
21
-134
0
LINE
8
0
10
51
20
-134
11
51
21
-116
0
LINE
8
0
10
70
20
-116
11
88
21
-116
0
LINE
8
0
10
88
20
-116
11
88
21
-134
0
LINE
8
0
10
88
20
-134
11
70
21
-134
0
LINE
8
0
10
70
20
-134
11
70
21
-116
0
LINE
8
0
10
70
20
-97
11
88
21
-97
0
LINE
8
0
10
88
20
-97
11
88
21
-115
0
LINE
8
0
10
88
20
-115
11
70
21
-115
0
LINE
8
0
10
70
20
-115
11
70
21
-97
0
LINE
8
0
10
89
20
-116
11
107
21
-116
0
LINE
8
0
10
107
20
-116
11
107
21
-134
0
LINE
8
0
10
107
20
-134
11
89
21
-134
0
LINE
8
0
10
89
20
-134
11
89
21
-116
0
LINE
8
0
10
51
20
-59
11
69
21
-59
0
LINE
8
0
10
69
20
-59
11
69
21
-77
0
LINE
8
0
10
69
20
-77
11
51
21
-77
0
LINE
8
0
10
51
20
-77
11
51
21
-59
0
LINE
8
0
10
51
20
-40
11
69
21
-40
0
LINE
8
0
10
69
20
-40
11
69
21
-58
0
LINE
8
0
10
69
20
-58
11
51
21
-58
0
LINE
8
0
10
51
20
-58
11
51
21
-40
0
LINE
8
0
10
70
20
-59
11
88
21
-59
0
LINE
8
0
10
88
20
-59
11
88
21
-77
0
LINE
8
0
10
88
20
-77
11
70
21
-77
0
LINE
8
0
10
70
20
-77
11
70
21
-59
0
LINE
8
0
10
70
20
-40
11
88
21
-40
0
LINE
8
0
10
88
20
-40
11
88
21
-58
0
LINE
8
0
10
88
20
-58
11
70
21
-58
0
LINE
8
0
10
70
20
-58
11
70
21
-40
0
LINE
8
0
10
89
20
-59
11
107
21
-59
0
LINE
8
0
10
107
20
-59
11
107
21
-77
0
LINE
8
0
10
107
20
-77
11
89
21
-77
0
LINE
8
0
10
89
20
-77
11
89
21
-59
0
LINE
8
0
10
89
20
-40
11
107
21
-40
0
LINE
8
0
10
107
20
-40
11
107
21
-58
0
LINE
8
0
10
107
20
-58
11
89
21
-58
0
LINE
8
0
10
89
20
-58
11
89
21
-40
0
LINE
8
0
10
46
20
-35
11
46
21
-35
0
LINE
8
0
10
46
20
-35
11
46
21
-35
0
LINE
8
0
10
46
20
-35
11
46
21
-35
0
LINE
8
0
10
46
20
-35
11
46
21
-35
0
LINE
8
0
10
112
20
-35
11
112
21
-35
0
LINE
8
0
10
112
20
-35
11
112
21
-35
0
LINE
8
0
10
112
20
-35
11
112
21
-35
0
LINE
8
0
10
112
20
-35
11
112
21
-35
0
LINE
8
0
10
46
20
-87
11
46
21
-87
0
LINE
8
0
10
46
20
-87
11
46
21
-87
0
LINE
8
0
10
46
20
-87
11
46
21
-87
0
LINE
8
0
10
46
20
-87
11
46
21
-87
0
LINE
8
0
10
112
20
-87
11
112
21
-87
0
LINE
8
0
10
112
20
-87
11
112
21
-87
0
LINE
8
0
10
112
20
-87
11
112
21
-87
0
LINE
8
0
10
112
20
-87
11
112
21
-87
0
LINE
8
0
10
46
20
-139
11
46
21
-139
0
LINE
8
0
10
46
20
-139
11
46
21
-139
0
LINE
8
0
10
46
20
-139
11
46
21
-139
0
LINE
8
0
10
46
20
-139
11
46
21
-139
0
LINE
8
0
10
112
20
-139
11
112
21
-139
0
LINE
8
0
10
112
20
-139
11
112
21
-139
0
LINE
8
0
10
112
20
-139
11
112
21
-139
0
LINE
8
0
10
112
20
-139
11
112
21
-139
0
ENDSEC
0
EOF