<svg width="66mm" height="104mm" viewBox="0 0 66 104" xmlns="http://www.w3.org/2000/svg"><g id="svgGroup" stroke-linecap="round" fill-rule="evenodd" font-size="9pt" stroke="#000" stroke-width="0.25mm" fill="none" style="stroke:#000;stroke-width:0.25mm;fill:none"><path d="M 5 81 L 23 81 L 23 99 L 5 99 L 5 81 Z M 24 81 L 42 81 L 42 99 L 24 99 L 24 81 Z M 24 62 L 42 62 L 42 80 L 24 80 L 24 62 Z M 43 81 L 61 81 L 61 99 L 43 99 L 43 81 Z M 5 24 L 23 24 L 23 42 L 5 42 L 5 24 Z M 5 5 L 23 5 L 23 23 L 5 23 L 5 5 Z M 24 24 L 42 24 L 42 42 L 24 42 L 24 24 Z M 24 5 L 42 5 L 42 23 L 24 23 L 24 5 Z M 43 24 L 61 24 L 61 42 L 43 42 L 43 24 Z M 43 5 L 61 5 L 61 23 L 43 23 L 43 5 Z" vector-effect="non-scaling-stroke"/></g></svg>