0
SECTION
2
HEADER
9
$INSUNITS
70
4
0
ENDSEC
0
SECTION
2
TABLES
0
TABLE
2
LTYPE
0
LTYPE
72
65
70
64
2
CONTINUOUS
3
______
73
0
40
0
0
ENDTAB
0
TABLE
2
LAYER
0
ENDTAB
0
ENDSEC
0
SECTION
2
ENTITIES
0
LINE
8
0
10
53
20
-132
11
67
21
-132
0
LINE
8
0
10
67
20
-132
11
67
21
-118
0
LINE
8
0
10
67
20
-118
11
53
21
-118
0
LINE
8
0
10
53
20
-118
11
53
21
-132
0
LINE
8
0
10
72
20
-132
11
86
21
-132
0
LINE
8
0
10
86
20
-132
11
86
21
-118
0
LINE
8
0
10
86
20
-118
11
72
21
-118
0
LINE
8
0
10
72
20
-118
11
72
21
-132
0
LINE
8
0
10
72
20
-113
11
86
21
-113
0
LINE
8
0
10
86
20
-113
11
86
21
-99
0
LINE
8
0
10
86
20
-99
11
72
21
-99
0
LINE
8
0
10
72
20
-99
11
72
21
-113
0
LINE
8
0
10
91
20
-132
11
105
21
-132
0
LINE
8
0
10
105
20
-132
11
105
21
-118
0
LINE
8
0
10
105
20
-118
11
91
21
-118
0
LINE
8
0
10
91
20
-118
11
91
21
-132
0
LINE
8
0
10
53
20
-75
11
67
21
-75
0
LINE
8
0
10
67
20
-75
11
67
21
-61
0
LINE
8
0
10
67
20
-61
11
53
21
-61
0
LINE
8
0
10
53
20
-61
11
53
21
-75
0
LINE
8
0
10
53
20
-56
11
67
21
-56
0
LINE
8
0
10
67
20
-56
11
67
21
-42
0
LINE
8
0
10
67
20
-42
11
53
21
-42
0
LINE
8
0
10
53
20
-42
11
53
21
-56
0
LINE
8
0
10
72
20
-75
11
86
21
-75
0
LINE
8
0
10
86
20
-75
11
86
21
-61
0
LINE
8
0
10
86
20
-61
11
72
21
-61
0
LINE
8
0
10
72
20
-61
11
72
21
-75
0
LINE
8
0
10
72
20
-56
11
86
21
-56
0
LINE
8
0
10
86
20
-56
11
86
21
-42
0
LINE
8
0
10
86
20
-42
11
72
21
-42
0
LINE
8
0
10
72
20
-42
11
72
21
-56
0
LINE
8
0
10
91
20
-75
11
105
21
-75
0
LINE
8
0
10
105
20
-75
11
105
21
-61
0
LINE
8
0
10
105
20
-61
11
91
21
-61
0
LINE
8
0
10
91
20
-61
11
91
21
-75
0
LINE
8
0
10
91
20
-56
11
105
21
-56
0
LINE
8
0
10
105
20
-56
11
105
21
-42
0
LINE
8
0
10
105
20
-42
11
91
21
-42
0
LINE
8
0
10
91
20
-42
11
91
21
-56
0
ENDSEC
0
EOF