<svg width="52mm" height="90mm" viewBox="0 0 52 90" xmlns="http://www.w3.org/2000/svg"><g id="svgGroup" stroke-linecap="round" fill-rule="evenodd" font-size="9pt" stroke="#000" stroke-width="0.25mm" fill="none" style="stroke:#000;stroke-width:0.25mm;fill:none"><path d="M 0 90 L 14 90 L 14 76 L 0 76 L 0 90 Z M 19 90 L 33 90 L 33 76 L 19 76 L 19 90 Z M 19 71 L 33 71 L 33 57 L 19 57 L 19 71 Z M 38 90 L 52 90 L 52 76 L 38 76 L 38 90 Z M 0 33 L 14 33 L 14 19 L 0 19 L 0 33 Z M 0 14 L 14 14 L 14 0 L 0 0 L 0 14 Z M 19 33 L 33 33 L 33 19 L 19 19 L 19 33 Z M 19 14 L 33 14 L 33 0 L 19 0 L 19 14 Z M 38 33 L 52 33 L 52 19 L 38 19 L 38 33 Z M 38 14 L 52 14 L 52 0 L 38 0 L 38 14 Z" vector-effect="non-scaling-stroke"/></g></svg>