<svg width="19.8mm" height="24.422mm" viewBox="0 0 19.8 24.422" xmlns="http://www.w3.org/2000/svg"><g id="svgGroup" stroke-linecap="round" fill-rule="evenodd" font-size="9pt" stroke="#000" stroke-width="0.25mm" fill="none" style="stroke:#000;stroke-width:0.25mm;fill:none"><path d="M 1 24.422 L 18.8 24.422 A 1 1 0 0 0 19.8 23.422 L 19.8 2.422 A 1 1 0 0 0 18.8 1.422 L 15.4 1.422 L 15.4 1 A 1 1 0 0 0 14.4 0 L 5.4 0 A 1 1 0 0 0 4.4 1 L 4.4 1.422 L 1 1.422 A 1 1 0 0 0 0 2.422 L 0 23.422 A 1 1 0 0 0 1 24.422 Z" vector-effect="non-scaling-stroke"/></g></svg>