<svg width="72.4mm" height="108.4mm" viewBox="0 0 72.4 108.4" xmlns="http://www.w3.org/2000/svg"><g id="svgGroup" stroke-linecap="round" fill-rule="evenodd" font-size="9pt" stroke="#000" stroke-width="0.25mm" fill="none" style="stroke:#000;stroke-width:0.25mm;fill:none"><path d="M 7.5 44.9 L 64.5 44.9 L 64.5 6.9 L 7.5 6.9 L 7.5 44.9 Z M 7.5 101.9 L 64.5 101.9 L 64.5 82.9 L 7.5 82.9 L 7.5 101.9 Z M 45.5 101.9 L 45.5 63.9 L 26.5 63.9 L 26.5 101.9 M 10 99.4 L 24 99.4 L 24 85.4 L 10 85.4 L 10 99.4 Z M 29 99.4 L 43 99.4 L 43 85.4 L 29 85.4 L 29 99.4 Z M 29 80.4 L 43 80.4 L 43 66.4 L 29 66.4 L 29 80.4 Z M 48 99.4 L 62 99.4 L 62 85.4 L 48 85.4 L 48 99.4 Z M 10 42.4 L 24 42.4 L 24 28.4 L 10 28.4 L 10 42.4 Z M 10 23.4 L 24 23.4 L 24 9.4 L 10 9.4 L 10 23.4 Z M 29 42.4 L 43 42.4 L 43 28.4 L 29 28.4 L 29 42.4 Z M 29 23.4 L 43 23.4 L 43 9.4 L 29 9.4 L 29 23.4 Z M 48 42.4 L 62 42.4 L 62 28.4 L 48 28.4 L 48 42.4 Z M 48 23.4 L 62 23.4 L 62 9.4 L 48 9.4 L 48 23.4 Z M 66 106.405 L 68.995 106.405 L 68.995 108.4 L 69.005 108.4 L 69.005 106.405 L 71.6 106.405 A 0.4 0.4 0 1 0 71.6 106.395 L 69.005 106.395 L 69.005 104.8 A 0.4 0.4 0 1 0 68.995 104.8 L 68.995 106.395 L 66 106.395 L 66 106.405 Z M 0 106.405 L 2.995 106.405 L 2.995 108.4 L 3.005 108.4 L 3.005 106.405 L 5.6 106.405 A 0.4 0.4 0 1 0 5.6 106.395 L 3.005 106.395 L 3.005 104.8 A 0.4 0.4 0 1 0 2.995 104.8 L 2.995 106.395 L 0 106.395 L 0 106.405 Z M 33 92.405 L 35.995 92.405 L 35.995 94.4 L 36.005 94.4 L 36.005 92.405 L 38.6 92.405 A 0.4 0.4 0 1 0 38.6 92.395 L 36.005 92.395 L 36.005 90.8 A 0.4 0.4 0 1 0 35.995 90.8 L 35.995 92.395 L 33 92.395 L 33 92.405 Z M 33 73.405 L 35.995 73.405 L 35.995 75.4 L 36.005 75.4 L 36.005 73.405 L 38.6 73.405 A 0.4 0.4 0 1 0 38.6 73.395 L 36.005 73.395 L 36.005 71.8 A 0.4 0.4 0 1 0 35.995 71.8 L 35.995 73.395 L 33 73.395 L 33 73.405 Z M 52 92.405 L 54.995 92.405 L 54.995 94.4 L 55.005 94.4 L 55.005 92.405 L 57.6 92.405 A 0.4 0.4 0 1 0 57.6 92.395 L 55.005 92.395 L 55.005 90.8 A 0.4 0.4 0 1 0 54.995 90.8 L 54.995 92.395 L 52 92.395 L 52 92.405 Z M 33 35.405 L 35.995 35.405 L 35.995 37.4 L 36.005 37.4 L 36.005 35.405 L 38.6 35.405 A 0.4 0.4 0 1 0 38.6 35.395 L 36.005 35.395 L 36.005 33.8 A 0.4 0.4 0 1 0 35.995 33.8 L 35.995 35.395 L 33 35.395 L 33 35.405 Z M 52 35.405 L 54.995 35.405 L 54.995 37.4 L 55.005 37.4 L 55.005 35.405 L 57.6 35.405 A 0.4 0.4 0 1 0 57.6 35.395 L 55.005 35.395 L 55.005 33.8 A 0.4 0.4 0 1 0 54.995 33.8 L 54.995 35.395 L 52 35.395 L 52 35.405 Z M 66 54.405 L 68.995 54.405 L 68.995 56.4 L 69.005 56.4 L 69.005 54.405 L 71.6 54.405 A 0.4 0.4 0 1 0 71.6 54.395 L 69.005 54.395 L 69.005 52.8 A 0.4 0.4 0 1 0 68.995 52.8 L 68.995 54.395 L 66 54.395 L 66 54.405 Z M 14 92.405 L 16.995 92.405 L 16.995 94.4 L 17.005 94.4 L 17.005 92.405 L 19.6 92.405 A 0.4 0.4 0 1 0 19.6 92.395 L 17.005 92.395 L 17.005 90.8 A 0.4 0.4 0 1 0 16.995 90.8 L 16.995 92.395 L 14 92.395 L 14 92.405 Z M 14 35.405 L 16.995 35.405 L 16.995 37.4 L 17.005 37.4 L 17.005 35.405 L 19.6 35.405 A 0.4 0.4 0 1 0 19.6 35.395 L 17.005 35.395 L 17.005 33.8 A 0.4 0.4 0 1 0 16.995 33.8 L 16.995 35.395 L 14 35.395 L 14 35.405 Z M 33 16.405 L 35.995 16.405 L 35.995 18.4 L 36.005 18.4 L 36.005 16.405 L 38.6 16.405 A 0.4 0.4 0 1 0 38.6 16.395 L 36.005 16.395 L 36.005 14.8 A 0.4 0.4 0 1 0 35.995 14.8 L 35.995 16.395 L 33 16.395 L 33 16.405 Z M 52 16.405 L 54.995 16.405 L 54.995 18.4 L 55.005 18.4 L 55.005 16.405 L 57.6 16.405 A 0.4 0.4 0 1 0 57.6 16.395 L 55.005 16.395 L 55.005 14.8 A 0.4 0.4 0 1 0 54.995 14.8 L 54.995 16.395 L 52 16.395 L 52 16.405 Z M 66 2.405 L 68.995 2.405 L 68.995 4.4 L 69.005 4.4 L 69.005 2.405 L 71.6 2.405 A 0.4 0.4 0 1 0 71.6 2.395 L 69.005 2.395 L 69.005 0.8 A 0.4 0.4 0 1 0 68.995 0.8 L 68.995 2.395 L 66 2.395 L 66 2.405 Z M 0 54.405 L 2.995 54.405 L 2.995 56.4 L 3.005 56.4 L 3.005 54.405 L 5.6 54.405 A 0.4 0.4 0 1 0 5.6 54.395 L 3.005 54.395 L 3.005 52.8 A 0.4 0.4 0 1 0 2.995 52.8 L 2.995 54.395 L 0 54.395 L 0 54.405 Z M 14 16.405 L 16.995 16.405 L 16.995 18.4 L 17.005 18.4 L 17.005 16.405 L 19.6 16.405 A 0.4 0.4 0 1 0 19.6 16.395 L 17.005 16.395 L 17.005 14.8 A 0.4 0.4 0 1 0 16.995 14.8 L 16.995 16.395 L 14 16.395 L 14 16.405 Z M 0 2.405 L 2.995 2.405 L 2.995 4.4 L 3.005 4.4 L 3.005 2.405 L 5.6 2.405 A 0.4 0.4 0 1 0 5.6 2.395 L 3.005 2.395 L 3.005 0.8 A 0.4 0.4 0 1 0 2.995 0.8 L 2.995 2.395 L 0 2.395 L 0 2.405 Z M 3 2.4 m -2 0 a 2 2 0 0 1 4 0 a 2 2 0 0 1 -4 0 z M 69 2.4 m -2 0 a 2 2 0 0 1 4 0 a 2 2 0 0 1 -4 0 z M 3 54.4 m -2 0 a 2 2 0 0 1 4 0 a 2 2 0 0 1 -4 0 z M 69 54.4 m -2 0 a 2 2 0 0 1 4 0 a 2 2 0 0 1 -4 0 z M 3 106.4 m -2 0 a 2 2 0 0 1 4 0 a 2 2 0 0 1 -4 0 z M 69 106.4 m -2 0 a 2 2 0 0 1 4 0 a 2 2 0 0 1 -4 0 z M 26.5 44.9 26.5 6.9 M 7.5 25.9 64.5 25.9 M 45.5 44.9 45.5 6.9" vector-effect="non-scaling-stroke"/></g></svg>