<svg width="73mm" height="111mm" viewBox="0 0 73 111" xmlns="http://www.w3.org/2000/svg"><g id="svgGroup" stroke-linecap="round" fill-rule="evenodd" font-size="9pt" stroke="#000" stroke-width="0.25mm" fill="none" style="stroke:#000;stroke-width:0.25mm;fill:none"><path d="M 8 103 L 65 103 L 65 8 L 8 8 L 8 103 Z M 8.5 102.5 L 26.5 102.5 L 26.5 84.5 L 8.5 84.5 L 8.5 102.5 Z M 27.5 102.5 L 45.5 102.5 L 45.5 84.5 L 27.5 84.5 L 27.5 102.5 Z M 27.5 83.5 L 45.5 83.5 L 45.5 65.5 L 27.5 65.5 L 27.5 83.5 Z M 46.5 102.5 L 64.5 102.5 L 64.5 84.5 L 46.5 84.5 L 46.5 102.5 Z M 8.5 45.5 L 26.5 45.5 L 26.5 27.5 L 8.5 27.5 L 8.5 45.5 Z M 8.5 26.5 L 26.5 26.5 L 26.5 8.5 L 8.5 8.5 L 8.5 26.5 Z M 27.5 45.5 L 45.5 45.5 L 45.5 27.5 L 27.5 27.5 L 27.5 45.5 Z M 27.5 26.5 L 45.5 26.5 L 45.5 8.5 L 27.5 8.5 L 27.5 26.5 Z M 46.5 45.5 L 64.5 45.5 L 64.5 27.5 L 46.5 27.5 L 46.5 45.5 Z M 46.5 26.5 L 64.5 26.5 L 64.5 8.5 L 46.5 8.5 L 46.5 26.5 Z M 45.4 7 L 45.4 28 L 27.6 28 L 27.6 7 M 10.5 100.5 L 24.5 100.5 L 24.5 86.5 L 10.5 86.5 L 10.5 100.5 Z M 29.5 100.5 L 43.5 100.5 L 43.5 86.5 L 29.5 86.5 L 29.5 100.5 Z M 29.5 81.5 L 43.5 81.5 L 43.5 67.5 L 29.5 67.5 L 29.5 81.5 Z M 48.5 100.5 L 62.5 100.5 L 62.5 86.5 L 48.5 86.5 L 48.5 100.5 Z M 10.5 43.5 L 24.5 43.5 L 24.5 29.5 L 10.5 29.5 L 10.5 43.5 Z M 10.5 24.5 L 24.5 24.5 L 24.5 10.5 L 10.5 10.5 L 10.5 24.5 Z M 29.5 43.5 L 43.5 43.5 L 43.5 29.5 L 29.5 29.5 L 29.5 43.5 Z M 29.5 24.5 L 43.5 24.5 L 43.5 10.5 L 29.5 10.5 L 29.5 24.5 Z M 48.5 43.5 L 62.5 43.5 L 62.5 29.5 L 48.5 29.5 L 48.5 43.5 Z M 48.5 24.5 L 62.5 24.5 L 62.5 10.5 L 48.5 10.5 L 48.5 24.5 Z M 41 12.929 L 41 5.578 L 32 5.578 L 32 12.929 L 41 12.929 Z M 66.5 107.505 L 69.495 107.505 L 69.495 109.5 L 69.505 109.5 L 69.505 107.505 L 72.1 107.505 A 0.4 0.4 0 1 0 72.1 107.495 L 69.505 107.495 L 69.505 105.9 A 0.4 0.4 0 1 0 69.495 105.9 L 69.495 107.495 L 66.5 107.495 L 66.5 107.505 Z M 0.5 107.505 L 3.495 107.505 L 3.495 109.5 L 3.505 109.5 L 3.505 107.505 L 6.1 107.505 A 0.4 0.4 0 1 0 6.1 107.495 L 3.505 107.495 L 3.505 105.9 A 0.4 0.4 0 1 0 3.495 105.9 L 3.495 107.495 L 0.5 107.495 L 0.5 107.505 Z M 33.5 93.505 L 36.495 93.505 L 36.495 95.5 L 36.505 95.5 L 36.505 93.505 L 39.1 93.505 A 0.4 0.4 0 1 0 39.1 93.495 L 36.505 93.495 L 36.505 91.9 A 0.4 0.4 0 1 0 36.495 91.9 L 36.495 93.495 L 33.5 93.495 L 33.5 93.505 Z M 33.5 74.505 L 36.495 74.505 L 36.495 76.5 L 36.505 76.5 L 36.505 74.505 L 39.1 74.505 A 0.4 0.4 0 1 0 39.1 74.495 L 36.505 74.495 L 36.505 72.9 A 0.4 0.4 0 1 0 36.495 72.9 L 36.495 74.495 L 33.5 74.495 L 33.5 74.505 Z M 52.5 93.505 L 55.495 93.505 L 55.495 95.5 L 55.505 95.5 L 55.505 93.505 L 58.1 93.505 A 0.4 0.4 0 1 0 58.1 93.495 L 55.505 93.495 L 55.505 91.9 A 0.4 0.4 0 1 0 55.495 91.9 L 55.495 93.495 L 52.5 93.495 L 52.5 93.505 Z M 33.5 36.505 L 36.495 36.505 L 36.495 38.5 L 36.505 38.5 L 36.505 36.505 L 39.1 36.505 A 0.4 0.4 0 1 0 39.1 36.495 L 36.505 36.495 L 36.505 34.9 A 0.4 0.4 0 1 0 36.495 34.9 L 36.495 36.495 L 33.5 36.495 L 33.5 36.505 Z M 52.5 36.505 L 55.495 36.505 L 55.495 38.5 L 55.505 38.5 L 55.505 36.505 L 58.1 36.505 A 0.4 0.4 0 1 0 58.1 36.495 L 55.505 36.495 L 55.505 34.9 A 0.4 0.4 0 1 0 55.495 34.9 L 55.495 36.495 L 52.5 36.495 L 52.5 36.505 Z M 66.5 55.505 L 69.495 55.505 L 69.495 57.5 L 69.505 57.5 L 69.505 55.505 L 72.1 55.505 A 0.4 0.4 0 1 0 72.1 55.495 L 69.505 55.495 L 69.505 53.9 A 0.4 0.4 0 1 0 69.495 53.9 L 69.495 55.495 L 66.5 55.495 L 66.5 55.505 Z M 14.5 93.505 L 17.495 93.505 L 17.495 95.5 L 17.505 95.5 L 17.505 93.505 L 20.1 93.505 A 0.4 0.4 0 1 0 20.1 93.495 L 17.505 93.495 L 17.505 91.9 A 0.4 0.4 0 1 0 17.495 91.9 L 17.495 93.495 L 14.5 93.495 L 14.5 93.505 Z M 14.5 36.505 L 17.495 36.505 L 17.495 38.5 L 17.505 38.5 L 17.505 36.505 L 20.1 36.505 A 0.4 0.4 0 1 0 20.1 36.495 L 17.505 36.495 L 17.505 34.9 A 0.4 0.4 0 1 0 17.495 34.9 L 17.495 36.495 L 14.5 36.495 L 14.5 36.505 Z M 33.5 17.505 L 36.495 17.505 L 36.495 19.5 L 36.505 19.5 L 36.505 17.505 L 39.1 17.505 A 0.4 0.4 0 1 0 39.1 17.495 L 36.505 17.495 L 36.505 15.9 A 0.4 0.4 0 1 0 36.495 15.9 L 36.495 17.495 L 33.5 17.495 L 33.5 17.505 Z M 52.5 17.505 L 55.495 17.505 L 55.495 19.5 L 55.505 19.5 L 55.505 17.505 L 58.1 17.505 A 0.4 0.4 0 1 0 58.1 17.495 L 55.505 17.495 L 55.505 15.9 A 0.4 0.4 0 1 0 55.495 15.9 L 55.495 17.495 L 52.5 17.495 L 52.5 17.505 Z M 66.5 3.505 L 69.495 3.505 L 69.495 5.5 L 69.505 5.5 L 69.505 3.505 L 72.1 3.505 A 0.4 0.4 0 1 0 72.1 3.495 L 69.505 3.495 L 69.505 1.9 A 0.4 0.4 0 1 0 69.495 1.9 L 69.495 3.495 L 66.5 3.495 L 66.5 3.505 Z M 0.5 55.505 L 3.495 55.505 L 3.495 57.5 L 3.505 57.5 L 3.505 55.505 L 6.1 55.505 A 0.4 0.4 0 1 0 6.1 55.495 L 3.505 55.495 L 3.505 53.9 A 0.4 0.4 0 1 0 3.495 53.9 L 3.495 55.495 L 0.5 55.495 L 0.5 55.505 Z M 14.5 17.505 L 17.495 17.505 L 17.495 19.5 L 17.505 19.5 L 17.505 17.505 L 20.1 17.505 A 0.4 0.4 0 1 0 20.1 17.495 L 17.505 17.495 L 17.505 15.9 A 0.4 0.4 0 1 0 17.495 15.9 L 17.495 17.495 L 14.5 17.495 L 14.5 17.505 Z M 0.5 3.505 L 3.495 3.505 L 3.495 5.5 L 3.505 5.5 L 3.505 3.505 L 6.1 3.505 A 0.4 0.4 0 1 0 6.1 3.495 L 3.505 3.495 L 3.505 1.9 A 0.4 0.4 0 1 0 3.495 1.9 L 3.495 3.495 L 0.5 3.495 L 0.5 3.505 Z M 3.5 3.5 m -2.05 0 a 2.05 2.05 0 0 1 4.1 0 a 2.05 2.05 0 0 1 -4.1 0 z M 69.5 3.5 m -2.05 0 a 2.05 2.05 0 0 1 4.1 0 a 2.05 2.05 0 0 1 -4.1 0 z M 3.5 55.5 m -2.05 0 a 2.05 2.05 0 0 1 4.1 0 a 2.05 2.05 0 0 1 -4.1 0 z M 69.5 55.5 m -2.05 0 a 2.05 2.05 0 0 1 4.1 0 a 2.05 2.05 0 0 1 -4.1 0 z M 3.5 107.5 m -2.05 0 a 2.05 2.05 0 0 1 4.1 0 a 2.05 2.05 0 0 1 -4.1 0 z M 69.5 107.5 m -2.05 0 a 2.05 2.05 0 0 1 4.1 0 a 2.05 2.05 0 0 1 -4.1 0 z M 3.5 3.5 m -2 0 a 2 2 0 0 1 4 0 a 2 2 0 0 1 -4 0 z M 69.5 3.5 m -2 0 a 2 2 0 0 1 4 0 a 2 2 0 0 1 -4 0 z M 3.5 55.5 m -2 0 a 2 2 0 0 1 4 0 a 2 2 0 0 1 -4 0 z M 69.5 55.5 m -2 0 a 2 2 0 0 1 4 0 a 2 2 0 0 1 -4 0 z M 3.5 107.5 m -2 0 a 2 2 0 0 1 4 0 a 2 2 0 0 1 -4 0 z M 69.5 107.5 m -2 0 a 2 2 0 0 1 4 0 a 2 2 0 0 1 -4 0 z M 71 109 m -2 0 a 2 2 0 0 0 4 0 a 2 2 0 0 0 -4 0 z M 71 2 m -2 0 a 2 2 0 0 0 4 0 a 2 2 0 0 0 -4 0 z M 2 2 m -2 0 a 2 2 0 0 0 4 0 a 2 2 0 0 0 -4 0 z M 2 109 m -2 0 a 2 2 0 0 0 4 0 a 2 2 0 0 0 -4 0 z M 64 102 m -2 0 a 2 2 0 0 0 4 0 a 2 2 0 0 0 -4 0 z M 64 9 m -2 0 a 2 2 0 0 0 4 0 a 2 2 0 0 0 -4 0 z M 9 9 m -2 0 a 2 2 0 0 0 4 0 a 2 2 0 0 0 -4 0 z M 9 102 m -2 0 a 2 2 0 0 0 4 0 a 2 2 0 0 0 -4 0 z M 26.6 7 A 1 1 0 0 1 27.6 6 L 30 6 L 30 0 M 43 0 L 43 6 L 45.4 6 A 1 1 0 0 1 46.4 7 M 3.5 3.5 m -1.1 0 a 1.1 1.1 0 0 1 2.2 0 a 1.1 1.1 0 0 1 -2.2 0 z M 69.5 3.5 m -1.1 0 a 1.1 1.1 0 0 1 2.2 0 a 1.1 1.1 0 0 1 -2.2 0 z M 3.5 55.5 m -1.1 0 a 1.1 1.1 0 0 1 2.2 0 a 1.1 1.1 0 0 1 -2.2 0 z M 69.5 55.5 m -1.1 0 a 1.1 1.1 0 0 1 2.2 0 a 1.1 1.1 0 0 1 -2.2 0 z M 3.5 107.5 m -1.1 0 a 1.1 1.1 0 0 1 2.2 0 a 1.1 1.1 0 0 1 -2.2 0 z M 69.5 107.5 m -1.1 0 a 1.1 1.1 0 0 1 2.2 0 a 1.1 1.1 0 0 1 -2.2 0 z M 8 84 65 84 M 8 46 65 46 M 65 102 A 1 1 0 0 1 64 103 M 64 8 A 1 1 0 0 1 65 9 M 8 9 A 1 1 0 0 1 9 8 M 9 103 A 1 1 0 0 1 8 102 M 2 111 71 111 M 73 109 73 2 M 2 0 71 0 M 0 109 0 2 M 9 104 64 104 M 66 102 66 9 M 9 7 64 7 M 7 102 7 9" vector-effect="non-scaling-stroke"/></g></svg>