0
SECTION
2
HEADER
9
$INSUNITS
70
4
0
ENDSEC
0
SECTION
2
TABLES
0
TABLE
2
LTYPE
0
LTYPE
72
65
70
64
2
CONTINUOUS
3
______
73
0
40
0
0
ENDTAB
0
TABLE
2
LAYER
0
ENDTAB
0
ENDSEC
0
SECTION
2
ENTITIES
0
LINE
8
0
10
57
20
-125.005
11
59.995
21
-125.005
0
LINE
8
0
10
60.005
20
-125.005
11
62.6000313
21
-125.005
0
LINE
8
0
10
62.6000313
20
-124.995
11
60.005
21
-124.995
0
LINE
8
0
10
59.995
20
-124.995
11
57
21
-124.995
0
LINE
8
0
10
57
20
-124.995
11
57
21
-125.005
0
LINE
8
0
10
76
20
-125.005
11
78.995
21
-125.005
0
LINE
8
0
10
79.005
20
-125.005
11
81.6000313
21
-125.005
0
LINE
8
0
10
81.6000313
20
-124.995
11
79.005
21
-124.995
0
LINE
8
0
10
78.995
20
-124.995
11
76
21
-124.995
0
LINE
8
0
10
76
20
-124.995
11
76
21
-125.005
0
LINE
8
0
10
76
20
-106.005
11
78.995
21
-106.005
0
LINE
8
0
10
79.005
20
-106.005
11
81.6000313
21
-106.005
0
LINE
8
0
10
81.6000313
20
-105.995
11
79.005
21
-105.995
0
LINE
8
0
10
78.995
20
-105.995
11
76
21
-105.995
0
LINE
8
0
10
76
20
-105.995
11
76
21
-106.005
0
LINE
8
0
10
95
20
-125.005
11
97.995
21
-125.005
0
LINE
8
0
10
98.005
20
-125.005
11
100.6000313
21
-125.005
0
LINE
8
0
10
100.6000313
20
-124.995
11
98.005
21
-124.995
0
LINE
8
0
10
97.995
20
-124.995
11
95
21
-124.995
0
LINE
8
0
10
95
20
-124.995
11
95
21
-125.005
0
LINE
8
0
10
57
20
-68.005
11
59.995
21
-68.005
0
LINE
8
0
10
60.005
20
-68.005
11
62.6000313
21
-68.005
0
LINE
8
0
10
62.6000313
20
-67.995
11
60.005
21
-67.995
0
LINE
8
0
10
59.995
20
-67.995
11
57
21
-67.995
0
LINE
8
0
10
57
20
-67.995
11
57
21
-68.005
0
LINE
8
0
10
57
20
-49.005
11
59.995
21
-49.005
0
LINE
8
0
10
60.005
20
-49.005
11
62.6000313
21
-49.005
0
LINE
8
0
10
62.6000313
20
-48.995
11
60.005
21
-48.995
0
LINE
8
0
10
59.995
20
-48.995
11
57
21
-48.995
0
LINE
8
0
10
57
20
-48.995
11
57
21
-49.005
0
LINE
8
0
10
76
20
-68.005
11
78.995
21
-68.005
0
LINE
8
0
10
79.005
20
-68.005
11
81.6000313
21
-68.005
0
LINE
8
0
10
81.6000313
20
-67.995
11
79.005
21
-67.995
0
LINE
8
0
10
78.995
20
-67.995
11
76
21
-67.995
0
LINE
8
0
10
76
20
-67.995
11
76
21
-68.005
0
LINE
8
0
10
76
20
-49.005
11
78.995
21
-49.005
0
LINE
8
0
10
79.005
20
-49.005
11
81.6000313
21
-49.005
0
LINE
8
0
10
81.6000313
20
-48.995
11
79.005
21
-48.995
0
LINE
8
0
10
78.995
20
-48.995
11
76
21
-48.995
0
LINE
8
0
10
76
20
-48.995
11
76
21
-49.005
0
LINE
8
0
10
95
20
-68.005
11
97.995
21
-68.005
0
LINE
8
0
10
98.005
20
-68.005
11
100.6000313
21
-68.005
0
LINE
8
0
10
100.6000313
20
-67.995
11
98.005
21
-67.995
0
LINE
8
0
10
97.995
20
-67.995
11
95
21
-67.995
0
LINE
8
0
10
95
20
-67.995
11
95
21
-68.005
0
LINE
8
0
10
95
20
-49.005
11
97.995
21
-49.005
0
LINE
8
0
10
98.005
20
-49.005
11
100.6000313
21
-49.005
0
LINE
8
0
10
100.6000313
20
-48.995
11
98.005
21
-48.995
0
LINE
8
0
10
97.995
20
-48.995
11
95
21
-48.995
0
LINE
8
0
10
95
20
-48.995
11
95
21
-49.005
0
LINE
8
0
10
43
20
-35.005
11
45.995
21
-35.005
0
LINE
8
0
10
46.005
20
-35.005
11
48.6000313
21
-35.005
0
LINE
8
0
10
48.6000313
20
-34.995
11
46.005
21
-34.995
0
LINE
8
0
10
45.995
20
-34.995
11
43
21
-34.995
0
LINE
8
0
10
43
20
-34.995
11
43
21
-35.005
0
LINE
8
0
10
109
20
-35.005
11
111.995
21
-35.005
0
LINE
8
0
10
112.005
20
-35.005
11
114.6000313
21
-35.005
0
LINE
8
0
10
114.6000313
20
-34.995
11
112.005
21
-34.995
0
LINE
8
0
10
111.995
20
-34.995
11
109
21
-34.995
0
LINE
8
0
10
109
20
-34.995
11
109
21
-35.005
0
LINE
8
0
10
43
20
-87.005
11
45.995
21
-87.005
0
LINE
8
0
10
46.005
20
-87.005
11
48.6000313
21
-87.005
0
LINE
8
0
10
48.6000313
20
-86.995
11
46.005
21
-86.995
0
LINE
8
0
10
45.995
20
-86.995
11
43
21
-86.995
0
LINE
8
0
10
43
20
-86.995
11
43
21
-87.005
0
LINE
8
0
10
109
20
-87.005
11
111.995
21
-87.005
0
LINE
8
0
10
112.005
20
-87.005
11
114.6000313
21
-87.005
0
LINE
8
0
10
114.6000313
20
-86.995
11
112.005
21
-86.995
0
LINE
8
0
10
111.995
20
-86.995
11
109
21
-86.995
0
LINE
8
0
10
109
20
-86.995
11
109
21
-87.005
0
LINE
8
0
10
43
20
-139.005
11
45.995
21
-139.005
0
LINE
8
0
10
46.005
20
-139.005
11
48.6000313
21
-139.005
0
LINE
8
0
10
48.6000313
20
-138.995
11
46.005
21
-138.995
0
LINE
8
0
10
45.995
20
-138.995
11
43
21
-138.995
0
LINE
8
0
10
43
20
-138.995
11
43
21
-139.005
0
LINE
8
0
10
109
20
-139.005
11
111.995
21
-139.005
0
LINE
8
0
10
112.005
20
-139.005
11
114.6000313
21
-139.005
0
LINE
8
0
10
114.6000313
20
-138.995
11
112.005
21
-138.995
0
LINE
8
0
10
111.995
20
-138.995
11
109
21
-138.995
0
LINE
8
0
10
109
20
-138.995
11
109
21
-139.005
0
LINE
8
0
10
59.995
20
-127
11
60.005
21
-127
0
LINE
8
0
10
60.005
20
-127
11
60.005
21
-125.005
0
LINE
8
0
10
60.005
20
-124.995
11
60.005
21
-123.3999687
0
LINE
8
0
10
59.995
20
-123.3999687
11
59.995
21
-124.995
0
LINE
8
0
10
59.995
20
-125.005
11
59.995
21
-127
0
LINE
8
0
10
78.995
20
-127
11
79.005
21
-127
0
LINE
8
0
10
79.005
20
-127
11
79.005
21
-125.005
0
LINE
8
0
10
79.005
20
-124.995
11
79.005
21
-123.3999687
0
LINE
8
0
10
78.995
20
-123.3999687
11
78.995
21
-124.995
0
LINE
8
0
10
78.995
20
-125.005
11
78.995
21
-127
0
LINE
8
0
10
78.995
20
-108
11
79.005
21
-108
0
LINE
8
0
10
79.005
20
-108
11
79.005
21
-106.005
0
LINE
8
0
10
79.005
20
-105.995
11
79.005
21
-104.3999687
0
LINE
8
0
10
78.995
20
-104.3999687
11
78.995
21
-105.995
0
LINE
8
0
10
78.995
20
-106.005
11
78.995
21
-108
0
LINE
8
0
10
97.995
20
-127
11
98.005
21
-127
0
LINE
8
0
10
98.005
20
-127
11
98.005
21
-125.005
0
LINE
8
0
10
98.005
20
-124.995
11
98.005
21
-123.3999687
0
LINE
8
0
10
97.995
20
-123.3999687
11
97.995
21
-124.995
0
LINE
8
0
10
97.995
20
-125.005
11
97.995
21
-127
0
LINE
8
0
10
59.995
20
-70
11
60.005
21
-70
0
LINE
8
0
10
60.005
20
-70
11
60.005
21
-68.005
0
LINE
8
0
10
60.005
20
-67.995
11
60.005
21
-66.3999687
0
LINE
8
0
10
59.995
20
-66.3999687
11
59.995
21
-67.995
0
LINE
8
0
10
59.995
20
-68.005
11
59.995
21
-70
0
LINE
8
0
10
59.995
20
-51
11
60.005
21
-51
0
LINE
8
0
10
60.005
20
-51
11
60.005
21
-49.005
0
LINE
8
0
10
60.005
20
-48.995
11
60.005
21
-47.3999687
0
LINE
8
0
10
59.995
20
-47.3999687
11
59.995
21
-48.995
0
LINE
8
0
10
59.995
20
-49.005
11
59.995
21
-51
0
LINE
8
0
10
78.995
20
-70
11
79.005
21
-70
0
LINE
8
0
10
79.005
20
-70
11
79.005
21
-68.005
0
LINE
8
0
10
79.005
20
-67.995
11
79.005
21
-66.3999687
0
LINE
8
0
10
78.995
20
-66.3999687
11
78.995
21
-67.995
0
LINE
8
0
10
78.995
20
-68.005
11
78.995
21
-70
0
LINE
8
0
10
78.995
20
-51
11
79.005
21
-51
0
LINE
8
0
10
79.005
20
-51
11
79.005
21
-49.005
0
LINE
8
0
10
79.005
20
-48.995
11
79.005
21
-47.3999687
0
LINE
8
0
10
78.995
20
-47.3999687
11
78.995
21
-48.995
0
LINE
8
0
10
78.995
20
-49.005
11
78.995
21
-51
0
LINE
8
0
10
97.995
20
-70
11
98.005
21
-70
0
LINE
8
0
10
98.005
20
-70
11
98.005
21
-68.005
0
LINE
8
0
10
98.005
20
-67.995
11
98.005
21
-66.3999687
0
LINE
8
0
10
97.995
20
-66.3999687
11
97.995
21
-67.995
0
LINE
8
0
10
97.995
20
-68.005
11
97.995
21
-70
0
LINE
8
0
10
97.995
20
-51
11
98.005
21
-51
0
LINE
8
0
10
98.005
20
-51
11
98.005
21
-49.005
0
LINE
8
0
10
98.005
20
-48.995
11
98.005
21
-47.3999687
0
LINE
8
0
10
97.995
20
-47.3999687
11
97.995
21
-48.995
0
LINE
8
0
10
97.995
20
-49.005
11
97.995
21
-51
0
LINE
8
0
10
45.995
20
-37
11
46.005
21
-37
0
LINE
8
0
10
46.005
20
-37
11
46.005
21
-35.005
0
LINE
8
0
10
46.005
20
-34.995
11
46.005
21
-33.3999687
0
LINE
8
0
10
45.995
20
-33.3999687
11
45.995
21
-34.995
0
LINE
8
0
10
45.995
20
-35.005
11
45.995
21
-37
0
LINE
8
0
10
111.995
20
-37
11
112.005
21
-37
0
LINE
8
0
10
112.005
20
-37
11
112.005
21
-35.005
0
LINE
8
0
10
112.005
20
-34.995
11
112.005
21
-33.3999687
0
LINE
8
0
10
111.995
20
-33.3999687
11
111.995
21
-34.995
0
LINE
8
0
10
111.995
20
-35.005
11
111.995
21
-37
0
LINE
8
0
10
45.995
20
-89
11
46.005
21
-89
0
LINE
8
0
10
46.005
20
-89
11
46.005
21
-87.005
0
LINE
8
0
10
46.005
20
-86.995
11
46.005
21
-85.3999687
0
LINE
8
0
10
45.995
20
-85.3999687
11
45.995
21
-86.995
0
LINE
8
0
10
45.995
20
-87.005
11
45.995
21
-89
0
LINE
8
0
10
111.995
20
-89
11
112.005
21
-89
0
LINE
8
0
10
112.005
20
-89
11
112.005
21
-87.005
0
LINE
8
0
10
112.005
20
-86.995
11
112.005
21
-85.3999687
0
LINE
8
0
10
111.995
20
-85.3999687
11
111.995
21
-86.995
0
LINE
8
0
10
111.995
20
-87.005
11
111.995
21
-89
0
LINE
8
0
10
45.995
20
-141
11
46.005
21
-141
0
LINE
8
0
10
46.005
20
-141
11
46.005
21
-139.005
0
LINE
8
0
10
46.005
20
-138.995
11
46.005
21
-137.3999687
0
LINE
8
0
10
45.995
20
-137.3999687
11
45.995
21
-138.995
0
LINE
8
0
10
45.995
20
-139.005
11
45.995
21
-141
0
LINE
8
0
10
111.995
20
-141
11
112.005
21
-141
0
LINE
8
0
10
112.005
20
-141
11
112.005
21
-139.005
0
LINE
8
0
10
112.005
20
-138.995
11
112.005
21
-137.3999687
0
LINE
8
0
10
111.995
20
-137.3999687
11
111.995
21
-138.995
0
LINE
8
0
10
111.995
20
-139.005
11
111.995
21
-141
0
ARC
8
0
10
63
20
-125
40
0.4
50
180.716216
51
539.283784
0
ARC
8
0
10
82
20
-125
40
0.4
50
180.716216
51
539.283784
0
ARC
8
0
10
82
20
-106
40
0.4
50
180.716216
51
539.283784
0
ARC
8
0
10
101
20
-125
40
0.4
50
180.716216
51
539.283784
0
ARC
8
0
10
63
20
-68
40
0.4
50
180.716216
51
539.283784
0
ARC
8
0
10
63
20
-49
40
0.4
50
180.716216
51
539.283784
0
ARC
8
0
10
82
20
-68
40
0.4
50
180.716216
51
539.283784
0
ARC
8
0
10
82
20
-49
40
0.4
50
180.716216
51
539.283784
0
ARC
8
0
10
101
20
-68
40
0.4
50
180.716216
51
539.283784
0
ARC
8
0
10
101
20
-49
40
0.4
50
180.716216
51
539.283784
0
ARC
8
0
10
49
20
-35
40
0.4
50
180.716216
51
539.283784
0
ARC
8
0
10
115
20
-35
40
0.4
50
180.716216
51
539.283784
0
ARC
8
0
10
49
20
-87
40
0.4
50
180.716216
51
539.283784
0
ARC
8
0
10
115
20
-87
40
0.4
50
180.716216
51
539.283784
0
ARC
8
0
10
49
20
-139
40
0.4
50
180.716216
51
539.283784
0
ARC
8
0
10
115
20
-139
40
0.4
50
180.716216
51
539.283784
0
ARC
8
0
10
60
20
-123
40
0.4
50
270.716216
51
629.283784
0
ARC
8
0
10
79
20
-123
40
0.4
50
270.716216
51
629.283784
0
ARC
8
0
10
79
20
-104
40
0.4
50
270.716216
51
629.283784
0
ARC
8
0
10
98
20
-123
40
0.4
50
270.716216
51
629.283784
0
ARC
8
0
10
60
20
-66
40
0.4
50
270.716216
51
629.283784
0
ARC
8
0
10
60
20
-47
40
0.4
50
270.716216
51
629.283784
0
ARC
8
0
10
79
20
-66
40
0.4
50
270.716216
51
629.283784
0
ARC
8
0
10
79
20
-47
40
0.4
50
270.716216
51
629.283784
0
ARC
8
0
10
98
20
-66
40
0.4
50
270.716216
51
629.283784
0
ARC
8
0
10
98
20
-47
40
0.4
50
270.716216
51
629.283784
0
ARC
8
0
10
46
20
-33
40
0.4
50
270.716216
51
629.283784
0
ARC
8
0
10
112
20
-33
40
0.4
50
270.716216
51
629.283784
0
ARC
8
0
10
46
20
-85
40
0.4
50
270.716216
51
629.283784
0
ARC
8
0
10
112
20
-85
40
0.4
50
270.716216
51
629.283784
0
ARC
8
0
10
46
20
-137
40
0.4
50
270.716216
51
629.283784
0
ARC
8
0
10
112
20
-137
40
0.4
50
270.716216
51
629.283784
0
LINE
8
0
10
50.5
20
-134.5
11
107.5
21
-134.5
0
LINE
8
0
10
50.5
20
-115.5
11
107.5
21
-115.5
0
LINE
8
0
10
50.5
20
-134.5
11
50.5
21
-39.5
0
LINE
8
0
10
107.5
20
-134.5
11
107.5
21
-39.5
0
LINE
8
0
10
50.5
20
-77.5
11
107.5
21
-77.5
0
LINE
8
0
10
50.5
20
-39.5
11
107.5
21
-39.5
0
LINE
8
0
10
53
20
-132
11
67
21
-132
0
LINE
8
0
10
67
20
-132
11
67
21
-118
0
LINE
8
0
10
53
20
-118
11
67
21
-118
0
LINE
8
0
10
53
20
-132
11
53
21
-118
0
LINE
8
0
10
72
20
-132
11
86
21
-132
0
LINE
8
0
10
86
20
-132
11
86
21
-118
0
LINE
8
0
10
72
20
-118
11
86
21
-118
0
LINE
8
0
10
72
20
-132
11
72
21
-118
0
LINE
8
0
10
72
20
-113
11
86
21
-113
0
LINE
8
0
10
86
20
-113
11
86
21
-99
0
LINE
8
0
10
72
20
-99
11
86
21
-99
0
LINE
8
0
10
72
20
-113
11
72
21
-99
0
LINE
8
0
10
91
20
-132
11
105
21
-132
0
LINE
8
0
10
105
20
-132
11
105
21
-118
0
LINE
8
0
10
91
20
-118
11
105
21
-118
0
LINE
8
0
10
91
20
-132
11
91
21
-118
0
LINE
8
0
10
53
20
-75
11
67
21
-75
0
LINE
8
0
10
67
20
-75
11
67
21
-61
0
LINE
8
0
10
53
20
-61
11
67
21
-61
0
LINE
8
0
10
53
20
-75
11
53
21
-61
0
LINE
8
0
10
53
20
-56
11
67
21
-56
0
LINE
8
0
10
67
20
-56
11
67
21
-42
0
LINE
8
0
10
53
20
-42
11
67
21
-42
0
LINE
8
0
10
53
20
-56
11
53
21
-42
0
LINE
8
0
10
72
20
-75
11
86
21
-75
0
LINE
8
0
10
86
20
-75
11
86
21
-61
0
LINE
8
0
10
72
20
-61
11
86
21
-61
0
LINE
8
0
10
72
20
-75
11
72
21
-61
0
LINE
8
0
10
72
20
-56
11
86
21
-56
0
LINE
8
0
10
86
20
-56
11
86
21
-42
0
LINE
8
0
10
72
20
-42
11
86
21
-42
0
LINE
8
0
10
72
20
-56
11
72
21
-42
0
LINE
8
0
10
91
20
-75
11
105
21
-75
0
LINE
8
0
10
105
20
-75
11
105
21
-61
0
LINE
8
0
10
91
20
-61
11
105
21
-61
0
LINE
8
0
10
91
20
-75
11
91
21
-61
0
LINE
8
0
10
91
20
-56
11
105
21
-56
0
LINE
8
0
10
105
20
-56
11
105
21
-42
0
LINE
8
0
10
91
20
-42
11
105
21
-42
0
LINE
8
0
10
91
20
-56
11
91
21
-42
0
CIRCLE
8
0
10
46
20
-35
40
2
0
CIRCLE
8
0
10
112
20
-35
40
2
0
CIRCLE
8
0
10
46
20
-87
40
2
0
CIRCLE
8
0
10
112
20
-87
40
2
0
CIRCLE
8
0
10
46
20
-139
40
2
0
CIRCLE
8
0
10
112
20
-139
40
2
0
LINE
8
0
10
51
20
-134
11
69
21
-134
0
LINE
8
0
10
69
20
-134
11
69
21
-116
0
LINE
8
0
10
69
20
-116
11
51
21
-116
0
LINE
8
0
10
51
20
-116
11
51
21
-134
0
LINE
8
0
10
70
20
-134
11
88
21
-134
0
LINE
8
0
10
88
20
-134
11
88
21
-116
0
LINE
8
0
10
88
20
-116
11
70
21
-116
0
LINE
8
0
10
70
20
-116
11
70
21
-134
0
LINE
8
0
10
70
20
-115
11
88
21
-115
0
LINE
8
0
10
88
20
-115
11
88
21
-97
0
LINE
8
0
10
88
20
-97
11
70
21
-97
0
LINE
8
0
10
70
20
-97
11
70
21
-115
0
LINE
8
0
10
89
20
-134
11
107
21
-134
0
LINE
8
0
10
107
20
-134
11
107
21
-116
0
LINE
8
0
10
107
20
-116
11
89
21
-116
0
LINE
8
0
10
89
20
-116
11
89
21
-134
0
LINE
8
0
10
51
20
-77
11
69
21
-77
0
LINE
8
0
10
69
20
-77
11
69
21
-59
0
LINE
8
0
10
69
20
-59
11
51
21
-59
0
LINE
8
0
10
51
20
-59
11
51
21
-77
0
LINE
8
0
10
51
20
-58
11
69
21
-58
0
LINE
8
0
10
69
20
-58
11
69
21
-40
0
LINE
8
0
10
69
20
-40
11
51
21
-40
0
LINE
8
0
10
51
20
-40
11
51
21
-58
0
LINE
8
0
10
70
20
-77
11
88
21
-77
0
LINE
8
0
10
88
20
-77
11
88
21
-59
0
LINE
8
0
10
88
20
-59
11
70
21
-59
0
LINE
8
0
10
70
20
-59
11
70
21
-77
0
LINE
8
0
10
70
20
-58
11
88
21
-58
0
LINE
8
0
10
88
20
-58
11
88
21
-40
0
LINE
8
0
10
88
20
-40
11
70
21
-40
0
LINE
8
0
10
70
20
-40
11
70
21
-58
0
LINE
8
0
10
89
20
-77
11
107
21
-77
0
LINE
8
0
10
107
20
-77
11
107
21
-59
0
LINE
8
0
10
107
20
-59
11
89
21
-59
0
LINE
8
0
10
89
20
-59
11
89
21
-77
0
LINE
8
0
10
89
20
-58
11
107
21
-58
0
LINE
8
0
10
107
20
-58
11
107
21
-40
0
LINE
8
0
10
107
20
-40
11
89
21
-40
0
LINE
8
0
10
89
20
-40
11
89
21
-58
0
CIRCLE
8
0
10
46
20
-35
40
1.1
0
CIRCLE
8
0
10
112
20
-35
40
1.1
0
CIRCLE
8
0
10
46
20
-87
40
1.1
0
CIRCLE
8
0
10
112
20
-87
40
1.1
0
CIRCLE
8
0
10
46
20
-139
40
1.1
0
CIRCLE
8
0
10
112
20
-139
40
1.1
0
ARC
8
0
10
106.5
20
-133.5
40
1
50
270
51
0
0
ARC
8
0
10
106.5
20
-40.5
40
1
50
0
51
90
0
ARC
8
0
10
51.5
20
-40.5
40
1
50
90
51
180
0
ARC
8
0
10
51.5
20
-133.5
40
1
50
180
51
270
0
LINE
8
0
10
44.5
20
-142.5
11
113.5
21
-142.5
0
LINE
8
0
10
115.5
20
-140.5
11
115.5
21
-33.5
0
LINE
8
0
10
44.5
20
-31.5
11
113.5
21
-31.5
0
LINE
8
0
10
42.5
20
-140.5
11
42.5
21
-33.5
0
ARC
8
0
10
113.5
20
-140.5
40
2
50
270
51
630
0
ARC
8
0
10
113.5
20
-33.5
40
2
50
0
51
360
0
ARC
8
0
10
44.5
20
-33.5
40
2
50
90
51
450
0
ARC
8
0
10
44.5
20
-140.5
40
2
50
180
51
540
0
LINE
8
0
10
51.5
20
-135.5
11
106.5
21
-135.5
0
ARC
8
0
10
106.5
20
-133.5
40
2
50
270
51
630
0
LINE
8
0
10
108.5
20
-133.5
11
108.5
21
-40.5
0
ARC
8
0
10
106.5
20
-40.5
40
2
50
0
51
360
0
LINE
8
0
10
51.5
20
-38.5
11
106.5
21
-38.5
0
ARC
8
0
10
51.5
20
-40.5
40
2
50
90
51
450
0
LINE
8
0
10
49.5
20
-133.5
11
49.5
21
-40.5
0
ARC
8
0
10
51.5
20
-133.5
40
2
50
180
51
540
0
CIRCLE
8
0
10
46
20
-35
40
2.05
0
CIRCLE
8
0
10
112
20
-35
40
2.05
0
CIRCLE
8
0
10
46
20
-87
40
2.05
0
CIRCLE
8
0
10
112
20
-87
40
2.05
0
CIRCLE
8
0
10
46
20
-139
40
2.05
0
CIRCLE
8
0
10
112
20
-139
40
2.05
0
ARC
8
0
10
87.9
20
-38.5
40
1
50
0
51
90
0
LINE
8
0
10
87.9
20
-37.5
11
85.5
21
-37.5
0
LINE
8
0
10
72.5
20
-37.5
11
70.1
21
-37.5
0
ARC
8
0
10
70.1
20
-38.5
40
1
50
90
51
180
0
LINE
8
0
10
85.5
20
-37.5
11
85.5
21
-31.5
0
LINE
8
0
10
72.5
20
-31.5
11
72.5
21
-37.5
0
LINE
8
0
10
70.1
20
-59.5
11
87.9
21
-59.5
0
LINE
8
0
10
87.9
20
-59.5
11
87.9
21
-38.5
0
LINE
8
0
10
70.1
20
-38.5
11
70.1
21
-59.5
0
LINE
8
0
10
83.5
20
-44.4285
11
83.5
21
-37.0785
0
LINE
8
0
10
74.5
20
-37.0785
11
83.5
21
-37.0785
0
LINE
8
0
10
74.5
20
-44.4285
11
74.5
21
-37.0785
0
LINE
8
0
10
74.5
20
-44.4285
11
83.5
21
-44.4285
0
ENDSEC
0
EOF