<!DOCTYPE svg PUBLIC "-//W3C//DTD SVG 1.1//EN" "http://www.w3.org/Graphics/SVG/1.1/DTD/svg11.dtd">
<svg xmlns="http://www.w3.org/2000/svg" version="1.1" width="73.25mm" height="111.25mm" viewBox="4237500.0 3137500.0 7325000.0 11125000.0">
            <title>Picture generated by PcbDraw </title>
            <desc>Picture generated by PcbDraw</desc>
        <defs><clipPath id="cut-off"><path d=" M 4670000.000000 3570000.000000 m-110000.000000 0 a 110000.000000 110000.000000 0 1 0 220000.0 0 a 110000.000000 110000.000000 0 1 0 -220000.0 0  M 11130000.000000 3570000.000000 m-110000.000000 0 a 110000.000000 110000.000000 0 1 0 220000.0 0 a 110000.000000 110000.000000 0 1 0 -220000.0 0  M 4670000.000000 8700000.000000 m-110000.000000 0 a 110000.000000 110000.000000 0 1 0 220000.0 0 a 110000.000000 110000.000000 0 1 0 -220000.0 0  M 11130000.000000 8700000.000000 m-110000.000000 0 a 110000.000000 110000.000000 0 1 0 220000.0 0 a 110000.000000 110000.000000 0 1 0 -220000.0 0  M 4670000.000000 13830000.000000 m-110000.000000 0 a 110000.000000 110000.000000 0 1 0 220000.0 0 a 110000.000000 110000.000000 0 1 0 -220000.0 0  M 11130000.000000 13830000.000000 m-110000.000000 0 a 110000.000000 110000.000000 0 1 0 220000.0 0 a 110000.000000 110000.000000 0 1 0 -220000.0 0  M 11312500.0 14162500.0 A 150000 150000 0 0 0 11462500.0 14012500.0 L 11462500.0 3387500.0 A 150000 150000 0 0 0 11312500.0 3237500.0 L 4487500.0 3237500.0 A 150000 150000 0 0 0 4337500.0 3387500.0 L 4337500.0 14012500.0 A 150000 150000 0 0 0 4487500.0 14162500.0 L 11312500.0 14162500.0 " style="fill-rule: evenodd;"/></clipPath><mask id="pads-mask"/><mask id="pads-mask-silkscreen"><rect x="4330000.0" y="3230000.0" width="7140000.0" height="10940000.0" fill="white"/></mask><mask id="hole-mask"><g><rect x="4330000.0" y="3230000.0" fill="white" width="7140000.0" height="10940000.0"/></g></mask></defs><g transform="" id="boardContainer"><g id="substrate" clip-path="url(#cut-off)" mask="url(#hole-mask)"><g id="substrate-board" style="fill:#1d1918; stroke:#1d1918;"><path d=" M 4670000.000000 3570000.000000 m-110000.000000 0 a 110000.000000 110000.000000 0 1 0 220000.0 0 a 110000.000000 110000.000000 0 1 0 -220000.0 0  M 11130000.000000 3570000.000000 m-110000.000000 0 a 110000.000000 110000.000000 0 1 0 220000.0 0 a 110000.000000 110000.000000 0 1 0 -220000.0 0  M 4670000.000000 8700000.000000 m-110000.000000 0 a 110000.000000 110000.000000 0 1 0 220000.0 0 a 110000.000000 110000.000000 0 1 0 -220000.0 0  M 11130000.000000 8700000.000000 m-110000.000000 0 a 110000.000000 110000.000000 0 1 0 220000.0 0 a 110000.000000 110000.000000 0 1 0 -220000.0 0  M 4670000.000000 13830000.000000 m-110000.000000 0 a 110000.000000 110000.000000 0 1 0 220000.0 0 a 110000.000000 110000.000000 0 1 0 -220000.0 0  M 11130000.000000 13830000.000000 m-110000.000000 0 a 110000.000000 110000.000000 0 1 0 220000.0 0 a 110000.000000 110000.000000 0 1 0 -220000.0 0  M 11312500.0 14162500.0 A 150000 150000 0 0 0 11462500.0 14012500.0 L 11462500.0 3387500.0 A 150000 150000 0 0 0 11312500.0 3237500.0 L 4487500.0 3237500.0 A 150000 150000 0 0 0 4337500.0 3387500.0 L 4337500.0 14012500.0 A 150000 150000 0 0 0 4487500.0 14162500.0 L 11312500.0 14162500.0 " style="fill-rule: evenodd;"/><g style="fill-opacity: 0.0;stroke-width: 15000.000000;stroke-opacity: 1;stroke-linecap: round;stroke-linejoin: round">
<path d="M4487500 14162500 L11312500 14162500 "/>
<path d="M11462500 14012500 L11462500 3387500 "/>
<path d="M11312500 3237500 L4487500 3237500 "/>
<path d="M4337500 3387500 L4337500 14012500 "/>
<path d="M11312500.000000 14162500.000000 A150000.000000 150000.000000 0.0 0 0 11462500.000000 14012500.000000"/>
<path d="M11462500.000000 3387500.000000 A150000.000000 150000.000000 0.0 0 0 11312500.000000 3237500.000000"/>
<path d="M4487500.000000 3237500.000000 A150000.000000 150000.000000 0.0 0 0 4337500.000000 3387500.000000"/>
<path d="M4337500.000000 14012500.000000 A150000.000000 150000.000000 0.0 0 0 4487500.000000 14162500.000000"/>
<circle cx="4670000.000000" cy="3570000.000000" r="110000.000000"/> 
<circle cx="11130000.000000" cy="3570000.000000" r="110000.000000"/> 
<circle cx="4670000.000000" cy="8700000.000000" r="110000.000000"/> 
<circle cx="11130000.000000" cy="8700000.000000" r="110000.000000"/> 
<circle cx="4670000.000000" cy="13830000.000000" r="110000.000000"/> 
<circle cx="11130000.000000" cy="13830000.000000" r="110000.000000"/> 
</g> 
</g><g id="substrate-outline" style="fill:#000000; stroke:#000000; stroke-width: 15000.0"><g style="fill-opacity: 0.0;stroke-opacity: 1;stroke-linecap: round;stroke-linejoin: round">
<path d="M4487500 14162500 L11312500 14162500 "/>
<path d="M11462500 14012500 L11462500 3387500 "/>
<path d="M11312500 3237500 L4487500 3237500 "/>
<path d="M4337500 3387500 L4337500 14012500 "/>
<path d="M11312500.000000 14162500.000000 A150000.000000 150000.000000 0.0 0 0 11462500.000000 14012500.000000"/>
<path d="M11462500.000000 3387500.000000 A150000.000000 150000.000000 0.0 0 0 11312500.000000 3237500.000000"/>
<path d="M4487500.000000 3237500.000000 A150000.000000 150000.000000 0.0 0 0 4337500.000000 3387500.000000"/>
<path d="M4337500.000000 14012500.000000 A150000.000000 150000.000000 0.0 0 0 4487500.000000 14162500.000000"/>
<circle cx="4670000.000000" cy="3570000.000000" r="110000.000000"/> 
<circle cx="11130000.000000" cy="3570000.000000" r="110000.000000"/> 
<circle cx="4670000.000000" cy="8700000.000000" r="110000.000000"/> 
<circle cx="11130000.000000" cy="8700000.000000" r="110000.000000"/> 
<circle cx="4670000.000000" cy="13830000.000000" r="110000.000000"/> 
<circle cx="11130000.000000" cy="13830000.000000" r="110000.000000"/> 
</g> 
</g></g></g></svg>