<!DOCTYPE svg PUBLIC "-//W3C//DTD SVG 1.1//EN" "http://www.w3.org/Graphics/SVG/1.1/DTD/svg11.dtd">
<svg xmlns="http://www.w3.org/2000/svg" version="1.1" width="75.0mm" height="113.0mm" viewBox="4150000.0 3050000.0 7500000.0 11300000.0">
            <title>Picture generated by PcbDraw </title>
            <desc>Picture generated by PcbDraw</desc>
        <defs><clipPath id="cut-off"><path d=" M 4600000.000000 3500000.000000 m-110000.000000 0 a 110000.000000 110000.000000 0 1 0 220000.0 0 a 110000.000000 110000.000000 0 1 0 -220000.0 0  M 11200000.000000 3500000.000000 m-110000.000000 0 a 110000.000000 110000.000000 0 1 0 220000.0 0 a 110000.000000 110000.000000 0 1 0 -220000.0 0  M 4600000.000000 8700000.000000 m-110000.000000 0 a 110000.000000 110000.000000 0 1 0 220000.0 0 a 110000.000000 110000.000000 0 1 0 -220000.0 0  M 11200000.000000 8700000.000000 m-110000.000000 0 a 110000.000000 110000.000000 0 1 0 220000.0 0 a 110000.000000 110000.000000 0 1 0 -220000.0 0  M 4600000.000000 13900000.000000 m-110000.000000 0 a 110000.000000 110000.000000 0 1 0 220000.0 0 a 110000.000000 110000.000000 0 1 0 -220000.0 0  M 11200000.000000 13900000.000000 m-110000.000000 0 a 110000.000000 110000.000000 0 1 0 220000.0 0 a 110000.000000 110000.000000 0 1 0 -220000.0 0  M 11350000.0 14250000.0 A 200000 200000 0 0 0 11550000.0 14050000.0 L 11550000.0 3350000.0 A 200000 200000 0 0 0 11350000.0 3150000.0 L 4450000.0 3150000.0 A 200000 200000 0 0 0 4250000.0 3350000.0 L 4250000.0 14050000.0 A 200000 200000 0 0 0 4450000.0 14250000.0 L 11350000.0 14250000.0 " style="fill-rule: evenodd;"/></clipPath><mask id="pads-mask"/><mask id="pads-mask-silkscreen"><rect x="4242500.0" y="3142500.0" width="7315000.0" height="11115000.0" fill="white"/></mask><mask id="hole-mask"><g><rect x="4242500.0" y="3142500.0" fill="white" width="7315000.0" height="11115000.0"/></g></mask></defs><g transform="" id="boardContainer"><g id="substrate" clip-path="url(#cut-off)" mask="url(#hole-mask)"><g id="substrate-board" style="fill:#1b1f44; stroke:#1b1f44;"><path d=" M 4600000.000000 3500000.000000 m-110000.000000 0 a 110000.000000 110000.000000 0 1 0 220000.0 0 a 110000.000000 110000.000000 0 1 0 -220000.0 0  M 11200000.000000 3500000.000000 m-110000.000000 0 a 110000.000000 110000.000000 0 1 0 220000.0 0 a 110000.000000 110000.000000 0 1 0 -220000.0 0  M 4600000.000000 8700000.000000 m-110000.000000 0 a 110000.000000 110000.000000 0 1 0 220000.0 0 a 110000.000000 110000.000000 0 1 0 -220000.0 0  M 11200000.000000 8700000.000000 m-110000.000000 0 a 110000.000000 110000.000000 0 1 0 220000.0 0 a 110000.000000 110000.000000 0 1 0 -220000.0 0  M 4600000.000000 13900000.000000 m-110000.000000 0 a 110000.000000 110000.000000 0 1 0 220000.0 0 a 110000.000000 110000.000000 0 1 0 -220000.0 0  M 11200000.000000 13900000.000000 m-110000.000000 0 a 110000.000000 110000.000000 0 1 0 220000.0 0 a 110000.000000 110000.000000 0 1 0 -220000.0 0  M 11350000.0 14250000.0 A 200000 200000 0 0 0 11550000.0 14050000.0 L 11550000.0 3350000.0 A 200000 200000 0 0 0 11350000.0 3150000.0 L 4450000.0 3150000.0 A 200000 200000 0 0 0 4250000.0 3350000.0 L 4250000.0 14050000.0 A 200000 200000 0 0 0 4450000.0 14250000.0 L 11350000.0 14250000.0 " style="fill-rule: evenodd;"/><g style="fill-opacity: 0.0;stroke-width: 15000.000000;stroke-opacity: 1;stroke-linecap: round;stroke-linejoin: round">
<path d="M4450000 14250000 L11350000 14250000 "/>
<path d="M11550000 14050000 L11550000 3350000 "/>
<path d="M4450000 3150000 L11350000 3150000 "/>
<path d="M4250000 14050000 L4250000 3350000 "/>
<path d="M11350000.000000 14250000.000000 A200000.000000 200000.000000 0.0 0 0 11550000.000000 14050000.000000"/>
<path d="M11550000.000000 3350000.000000 A200000.000000 200000.000000 0.0 0 0 11350000.000000 3150000.000000"/>
<path d="M4450000.000000 3150000.000000 A200000.000000 200000.000000 0.0 0 0 4250000.000000 3350000.000000"/>
<path d="M4250000.000000 14050000.000000 A200000.000000 200000.000000 0.0 0 0 4450000.000000 14250000.000000"/>
<circle cx="4600000.000000" cy="3500000.000000" r="110000.000000"/> 
<circle cx="11200000.000000" cy="3500000.000000" r="110000.000000"/> 
<circle cx="4600000.000000" cy="8700000.000000" r="110000.000000"/> 
<circle cx="11200000.000000" cy="8700000.000000" r="110000.000000"/> 
<circle cx="4600000.000000" cy="13900000.000000" r="110000.000000"/> 
<circle cx="11200000.000000" cy="13900000.000000" r="110000.000000"/> 
</g> 
</g><g id="substrate-outline" style="fill:#000000; stroke:#000000; stroke-width: 15000.0"><g style="fill-opacity: 0.0;stroke-opacity: 1;stroke-linecap: round;stroke-linejoin: round">
<path d="M4450000 14250000 L11350000 14250000 "/>
<path d="M11550000 14050000 L11550000 3350000 "/>
<path d="M4450000 3150000 L11350000 3150000 "/>
<path d="M4250000 14050000 L4250000 3350000 "/>
<path d="M11350000.000000 14250000.000000 A200000.000000 200000.000000 0.0 0 0 11550000.000000 14050000.000000"/>
<path d="M11550000.000000 3350000.000000 A200000.000000 200000.000000 0.0 0 0 11350000.000000 3150000.000000"/>
<path d="M4450000.000000 3150000.000000 A200000.000000 200000.000000 0.0 0 0 4250000.000000 3350000.000000"/>
<path d="M4250000.000000 14050000.000000 A200000.000000 200000.000000 0.0 0 0 4450000.000000 14250000.000000"/>
<circle cx="4600000.000000" cy="3500000.000000" r="110000.000000"/> 
<circle cx="11200000.000000" cy="3500000.000000" r="110000.000000"/> 
<circle cx="4600000.000000" cy="8700000.000000" r="110000.000000"/> 
<circle cx="11200000.000000" cy="8700000.000000" r="110000.000000"/> 
<circle cx="4600000.000000" cy="13900000.000000" r="110000.000000"/> 
<circle cx="11200000.000000" cy="13900000.000000" r="110000.000000"/> 
</g> 
</g></g></g></svg>