<svg width="73mm" height="111mm" viewBox="0 0 73 111" xmlns="http://www.w3.org/2000/svg"><g id="svgGroup" stroke-linecap="round" fill-rule="evenodd" font-size="9pt" stroke="#000" stroke-width="0.25mm" fill="none" style="stroke:#000;stroke-width:0.25mm;fill:none"><path d="M 2 111 L 71 111 A 2 2 0 0 0 73 109 L 73 2 A 2 2 0 0 0 71 0 L 2 0 A 2 2 0 0 0 0 2 L 0 109 A 2 2 0 0 0 2 111 Z M 10.5 100.5 L 24.5 100.5 L 24.5 86.5 L 10.5 86.5 L 10.5 100.5 Z M 29.5 100.5 L 43.5 100.5 L 43.5 86.5 L 29.5 86.5 L 29.5 100.5 Z M 29.5 81.5 L 43.5 81.5 L 43.5 67.5 L 29.5 67.5 L 29.5 81.5 Z M 48.5 100.5 L 62.5 100.5 L 62.5 86.5 L 48.5 86.5 L 48.5 100.5 Z M 10.5 43.5 L 24.5 43.5 L 24.5 29.5 L 10.5 29.5 L 10.5 43.5 Z M 10.5 24.5 L 24.5 24.5 L 24.5 10.5 L 10.5 10.5 L 10.5 24.5 Z M 29.5 43.5 L 43.5 43.5 L 43.5 29.5 L 29.5 29.5 L 29.5 43.5 Z M 29.5 24.5 L 43.5 24.5 L 43.5 10.5 L 29.5 10.5 L 29.5 24.5 Z M 48.5 43.5 L 62.5 43.5 L 62.5 29.5 L 48.5 29.5 L 48.5 43.5 Z M 48.5 24.5 L 62.5 24.5 L 62.5 10.5 L 48.5 10.5 L 48.5 24.5 Z M 3.5 3.5 m -1.1 0 a 1.1 1.1 0 0 1 2.2 0 a 1.1 1.1 0 0 1 -2.2 0 z M 69.5 3.5 m -1.1 0 a 1.1 1.1 0 0 1 2.2 0 a 1.1 1.1 0 0 1 -2.2 0 z M 3.5 55.5 m -1.1 0 a 1.1 1.1 0 0 1 2.2 0 a 1.1 1.1 0 0 1 -2.2 0 z M 69.5 55.5 m -1.1 0 a 1.1 1.1 0 0 1 2.2 0 a 1.1 1.1 0 0 1 -2.2 0 z M 3.5 107.5 m -1.1 0 a 1.1 1.1 0 0 1 2.2 0 a 1.1 1.1 0 0 1 -2.2 0 z M 69.5 107.5 m -1.1 0 a 1.1 1.1 0 0 1 2.2 0 a 1.1 1.1 0 0 1 -2.2 0 z" vector-effect="non-scaling-stroke"/></g></svg>