<svg width="71.25mm" height="109.25mm" viewBox="0 0 71.25 109.25" xmlns="http://www.w3.org/2000/svg"><g id="svgGroup" stroke-linecap="round" fill-rule="evenodd" font-size="9pt" stroke="#000" stroke-width="0.25mm" fill="none" style="stroke:#000;stroke-width:0.25mm;fill:none"><path d="M 1.5 109.25 L 69.75 109.25 A 1.5 1.5 0 0 0 71.25 107.75 L 71.25 1.5 A 1.5 1.5 0 0 0 69.75 0 L 1.5 0 A 1.5 1.5 0 0 0 0 1.5 L 0 107.75 A 1.5 1.5 0 0 0 1.5 109.25 Z M 9.625 99.625 L 23.625 99.625 L 23.625 85.625 L 9.625 85.625 L 9.625 99.625 Z M 28.625 99.625 L 42.625 99.625 L 42.625 85.625 L 28.625 85.625 L 28.625 99.625 Z M 28.625 80.625 L 42.625 80.625 L 42.625 66.625 L 28.625 66.625 L 28.625 80.625 Z M 47.625 99.625 L 61.625 99.625 L 61.625 85.625 L 47.625 85.625 L 47.625 99.625 Z M 9.625 42.625 L 23.625 42.625 L 23.625 28.625 L 9.625 28.625 L 9.625 42.625 Z M 9.625 23.625 L 23.625 23.625 L 23.625 9.625 L 9.625 9.625 L 9.625 23.625 Z M 28.625 42.625 L 42.625 42.625 L 42.625 28.625 L 28.625 28.625 L 28.625 42.625 Z M 28.625 23.625 L 42.625 23.625 L 42.625 9.625 L 28.625 9.625 L 28.625 23.625 Z M 47.625 42.625 L 61.625 42.625 L 61.625 28.625 L 47.625 28.625 L 47.625 42.625 Z M 47.625 23.625 L 61.625 23.625 L 61.625 9.625 L 47.625 9.625 L 47.625 23.625 Z M 3.325 3.325 m -1.1 0 a 1.1 1.1 0 0 1 2.2 0 a 1.1 1.1 0 0 1 -2.2 0 z M 67.925 3.325 m -1.1 0 a 1.1 1.1 0 0 1 2.2 0 a 1.1 1.1 0 0 1 -2.2 0 z M 3.325 54.625 m -1.1 0 a 1.1 1.1 0 0 1 2.2 0 a 1.1 1.1 0 0 1 -2.2 0 z M 67.925 54.625 m -1.1 0 a 1.1 1.1 0 0 1 2.2 0 a 1.1 1.1 0 0 1 -2.2 0 z M 3.325 105.925 m -1.1 0 a 1.1 1.1 0 0 1 2.2 0 a 1.1 1.1 0 0 1 -2.2 0 z M 67.925 105.925 m -1.1 0 a 1.1 1.1 0 0 1 2.2 0 a 1.1 1.1 0 0 1 -2.2 0 z" vector-effect="non-scaling-stroke"/></g></svg>