<svg width="71.25mm" height="109.25mm" viewBox="0 0 71.25 109.25" xmlns="http://www.w3.org/2000/svg"><g id="svgGroup" stroke-linecap="round" fill-rule="evenodd" font-size="9pt" stroke="#000" stroke-width="0.25mm" fill="none" style="stroke:#000;stroke-width:0.25mm;fill:none"><path d="M 7.875 102.375 L 63.375 102.375 A 1 1 0 0 0 64.375 101.375 L 64.375 7.875 A 1 1 0 0 0 63.375 6.875 L 7.875 6.875 A 1 1 0 0 0 6.875 7.875 L 6.875 101.375 A 1 1 0 0 0 7.875 102.375 Z M 8.125 102.125 L 63.125 102.125 A 1 1 0 0 0 64.125 101.125 L 64.125 8.125 A 1 1 0 0 0 63.125 7.125 L 8.125 7.125 A 1 1 0 0 0 7.125 8.125 L 7.125 101.125 A 1 1 0 0 0 8.125 102.125 Z M 27.125 101.625 L 44.125 101.625 A 0.5 0.5 0 0 0 44.625 101.125 L 44.625 84.125 A 0.5 0.5 0 0 0 44.125 83.625 L 27.125 83.625 A 0.5 0.5 0 0 0 26.625 84.125 L 26.625 101.125 A 0.5 0.5 0 0 0 27.125 101.625 Z M 27.125 82.625 L 44.125 82.625 A 0.5 0.5 0 0 0 44.625 82.125 L 44.625 65.125 A 0.5 0.5 0 0 0 44.125 64.625 L 27.125 64.625 A 0.5 0.5 0 0 0 26.625 65.125 L 26.625 82.125 A 0.5 0.5 0 0 0 27.125 82.625 Z M 8.125 101.625 L 25.125 101.625 A 0.5 0.5 0 0 0 25.625 101.125 L 25.625 84.125 A 0.5 0.5 0 0 0 25.125 83.625 L 8.125 83.625 A 0.5 0.5 0 0 0 7.625 84.125 L 7.625 101.125 A 0.5 0.5 0 0 0 8.125 101.625 Z M 46.125 101.625 L 63.125 101.625 A 0.5 0.5 0 0 0 63.625 101.125 L 63.625 84.125 A 0.5 0.5 0 0 0 63.125 83.625 L 46.125 83.625 A 0.5 0.5 0 0 0 45.625 84.125 L 45.625 101.125 A 0.5 0.5 0 0 0 46.125 101.625 Z M 8.125 44.625 L 25.125 44.625 A 0.5 0.5 0 0 0 25.625 44.125 L 25.625 27.125 A 0.5 0.5 0 0 0 25.125 26.625 L 8.125 26.625 A 0.5 0.5 0 0 0 7.625 27.125 L 7.625 44.125 A 0.5 0.5 0 0 0 8.125 44.625 Z M 8.125 25.625 L 25.125 25.625 A 0.5 0.5 0 0 0 25.625 25.125 L 25.625 8.125 A 0.5 0.5 0 0 0 25.125 7.625 L 8.125 7.625 A 0.5 0.5 0 0 0 7.625 8.125 L 7.625 25.125 A 0.5 0.5 0 0 0 8.125 25.625 Z M 27.125 44.625 L 44.125 44.625 A 0.5 0.5 0 0 0 44.625 44.125 L 44.625 27.125 A 0.5 0.5 0 0 0 44.125 26.625 L 27.125 26.625 A 0.5 0.5 0 0 0 26.625 27.125 L 26.625 44.125 A 0.5 0.5 0 0 0 27.125 44.625 Z M 27.125 25.625 L 44.125 25.625 A 0.5 0.5 0 0 0 44.625 25.125 L 44.625 8.125 A 0.5 0.5 0 0 0 44.125 7.625 L 27.125 7.625 A 0.5 0.5 0 0 0 26.625 8.125 L 26.625 25.125 A 0.5 0.5 0 0 0 27.125 25.625 Z M 46.125 44.625 L 63.125 44.625 A 0.5 0.5 0 0 0 63.625 44.125 L 63.625 27.125 A 0.5 0.5 0 0 0 63.125 26.625 L 46.125 26.625 A 0.5 0.5 0 0 0 45.625 27.125 L 45.625 44.125 A 0.5 0.5 0 0 0 46.125 44.625 Z M 46.125 25.625 L 63.125 25.625 A 0.5 0.5 0 0 0 63.625 25.125 L 63.625 8.125 A 0.5 0.5 0 0 0 63.125 7.625 L 46.125 7.625 A 0.5 0.5 0 0 0 45.625 8.125 L 45.625 25.125 A 0.5 0.5 0 0 0 46.125 25.625 Z M 28.625 99.625 L 42.625 99.625 L 42.625 85.625 L 28.625 85.625 L 28.625 99.625 Z M 28.625 80.625 L 42.625 80.625 L 42.625 66.625 L 28.625 66.625 L 28.625 80.625 Z M 9.625 99.625 L 23.625 99.625 L 23.625 85.625 L 9.625 85.625 L 9.625 99.625 Z M 47.625 99.625 L 61.625 99.625 L 61.625 85.625 L 47.625 85.625 L 47.625 99.625 Z M 9.625 42.625 L 23.625 42.625 L 23.625 28.625 L 9.625 28.625 L 9.625 42.625 Z M 9.625 23.625 L 23.625 23.625 L 23.625 9.625 L 9.625 9.625 L 9.625 23.625 Z M 28.625 42.625 L 42.625 42.625 L 42.625 28.625 L 28.625 28.625 L 28.625 42.625 Z M 28.625 23.625 L 42.625 23.625 L 42.625 9.625 L 28.625 9.625 L 28.625 23.625 Z M 47.625 42.625 L 61.625 42.625 L 61.625 28.625 L 47.625 28.625 L 47.625 42.625 Z M 47.625 23.625 L 61.625 23.625 L 61.625 9.625 L 47.625 9.625 L 47.625 23.625 Z M 3.325 3.325 m -2.05 0 a 2.05 2.05 0 0 1 4.1 0 a 2.05 2.05 0 0 1 -4.1 0 z M 67.925 3.325 m -2.05 0 a 2.05 2.05 0 0 1 4.1 0 a 2.05 2.05 0 0 1 -4.1 0 z M 3.325 54.625 m -2.05 0 a 2.05 2.05 0 0 1 4.1 0 a 2.05 2.05 0 0 1 -4.1 0 z M 67.925 54.625 m -2.05 0 a 2.05 2.05 0 0 1 4.1 0 a 2.05 2.05 0 0 1 -4.1 0 z M 3.325 105.925 m -2.05 0 a 2.05 2.05 0 0 1 4.1 0 a 2.05 2.05 0 0 1 -4.1 0 z M 67.925 105.925 m -2.05 0 a 2.05 2.05 0 0 1 4.1 0 a 2.05 2.05 0 0 1 -4.1 0 z M 69.75 107.75 m -1.5 0 a 1.5 1.5 0 0 0 3 0 a 1.5 1.5 0 0 0 -3 0 z M 69.75 1.5 m -1.5 0 a 1.5 1.5 0 0 0 3 0 a 1.5 1.5 0 0 0 -3 0 z M 1.5 1.5 m -1.5 0 a 1.5 1.5 0 0 0 3 0 a 1.5 1.5 0 0 0 -3 0 z M 1.5 107.75 m -1.5 0 a 1.5 1.5 0 0 0 3 0 a 1.5 1.5 0 0 0 -3 0 z M 3.325 3.325 m -1.1 0 a 1.1 1.1 0 0 1 2.2 0 a 1.1 1.1 0 0 1 -2.2 0 z M 67.925 3.325 m -1.1 0 a 1.1 1.1 0 0 1 2.2 0 a 1.1 1.1 0 0 1 -2.2 0 z M 3.325 54.625 m -1.1 0 a 1.1 1.1 0 0 1 2.2 0 a 1.1 1.1 0 0 1 -2.2 0 z M 67.925 54.625 m -1.1 0 a 1.1 1.1 0 0 1 2.2 0 a 1.1 1.1 0 0 1 -2.2 0 z M 3.325 105.925 m -1.1 0 a 1.1 1.1 0 0 1 2.2 0 a 1.1 1.1 0 0 1 -2.2 0 z M 67.925 105.925 m -1.1 0 a 1.1 1.1 0 0 1 2.2 0 a 1.1 1.1 0 0 1 -2.2 0 z M 1.5 109.25 69.75 109.25 M 71.25 107.75 71.25 1.5 M 1.5 0 69.75 0 M 0 107.75 0 1.5" vector-effect="non-scaling-stroke"/></g></svg>