0
SECTION
2
HEADER
9
$INSUNITS
70
4
0
ENDSEC
0
SECTION
2
TABLES
0
TABLE
2
LTYPE
0
LTYPE
72
65
70
64
2
CONTINUOUS
3
______
73
0
40
0
0
ENDTAB
0
TABLE
2
LAYER
0
ENDTAB
0
ENDSEC
0
SECTION
2
ENTITIES
0
LINE
8
0
10
44.875
20
-141.625
11
113.125
21
-141.625
0
LINE
8
0
10
114.625
20
-140.125
11
114.625
21
-33.875
0
LINE
8
0
10
44.875
20
-32.375
11
113.125
21
-32.375
0
LINE
8
0
10
43.375
20
-140.125
11
43.375
21
-33.875
0
ARC
8
0
10
113.125
20
-140.125
40
1.5
50
270
51
630
0
ARC
8
0
10
113.125
20
-33.875
40
1.5
50
0
51
360
0
ARC
8
0
10
44.875
20
-33.875
40
1.5
50
90
51
450
0
ARC
8
0
10
44.875
20
-140.125
40
1.5
50
180
51
540
0
LINE
8
0
10
51
20
-134
11
69
21
-134
0
LINE
8
0
10
69
20
-134
11
69
21
-116
0
LINE
8
0
10
69
20
-116
11
51
21
-116
0
LINE
8
0
10
51
20
-116
11
51
21
-134
0
LINE
8
0
10
70
20
-134
11
88
21
-134
0
LINE
8
0
10
88
20
-134
11
88
21
-116
0
LINE
8
0
10
88
20
-116
11
70
21
-116
0
LINE
8
0
10
70
20
-116
11
70
21
-134
0
LINE
8
0
10
70
20
-115
11
88
21
-115
0
LINE
8
0
10
88
20
-115
11
88
21
-97
0
LINE
8
0
10
88
20
-97
11
70
21
-97
0
LINE
8
0
10
70
20
-97
11
70
21
-115
0
LINE
8
0
10
89
20
-134
11
107
21
-134
0
LINE
8
0
10
107
20
-134
11
107
21
-116
0
LINE
8
0
10
107
20
-116
11
89
21
-116
0
LINE
8
0
10
89
20
-116
11
89
21
-134
0
LINE
8
0
10
51
20
-77
11
69
21
-77
0
LINE
8
0
10
69
20
-77
11
69
21
-59
0
LINE
8
0
10
69
20
-59
11
51
21
-59
0
LINE
8
0
10
51
20
-59
11
51
21
-77
0
LINE
8
0
10
51
20
-58
11
69
21
-58
0
LINE
8
0
10
69
20
-58
11
69
21
-40
0
LINE
8
0
10
69
20
-40
11
51
21
-40
0
LINE
8
0
10
51
20
-40
11
51
21
-58
0
LINE
8
0
10
70
20
-77
11
88
21
-77
0
LINE
8
0
10
88
20
-77
11
88
21
-59
0
LINE
8
0
10
88
20
-59
11
70
21
-59
0
LINE
8
0
10
70
20
-59
11
70
21
-77
0
LINE
8
0
10
70
20
-58
11
88
21
-58
0
LINE
8
0
10
88
20
-58
11
88
21
-40
0
LINE
8
0
10
88
20
-40
11
70
21
-40
0
LINE
8
0
10
70
20
-40
11
70
21
-58
0
LINE
8
0
10
89
20
-77
11
107
21
-77
0
LINE
8
0
10
107
20
-77
11
107
21
-59
0
LINE
8
0
10
107
20
-59
11
89
21
-59
0
LINE
8
0
10
89
20
-59
11
89
21
-77
0
LINE
8
0
10
89
20
-58
11
107
21
-58
0
LINE
8
0
10
107
20
-58
11
107
21
-40
0
LINE
8
0
10
107
20
-40
11
89
21
-40
0
LINE
8
0
10
89
20
-40
11
89
21
-58
0
LINE
8
0
10
53
20
-132
11
67
21
-132
0
LINE
8
0
10
67
20
-132
11
67
21
-118
0
LINE
8
0
10
67
20
-118
11
53
21
-118
0
LINE
8
0
10
53
20
-118
11
53
21
-132
0
LINE
8
0
10
72
20
-132
11
86
21
-132
0
LINE
8
0
10
86
20
-132
11
86
21
-118
0
LINE
8
0
10
86
20
-118
11
72
21
-118
0
LINE
8
0
10
72
20
-118
11
72
21
-132
0
LINE
8
0
10
72
20
-113
11
86
21
-113
0
LINE
8
0
10
86
20
-113
11
86
21
-99
0
LINE
8
0
10
86
20
-99
11
72
21
-99
0
LINE
8
0
10
72
20
-99
11
72
21
-113
0
LINE
8
0
10
91
20
-132
11
105
21
-132
0
LINE
8
0
10
105
20
-132
11
105
21
-118
0
LINE
8
0
10
105
20
-118
11
91
21
-118
0
LINE
8
0
10
91
20
-118
11
91
21
-132
0
LINE
8
0
10
53
20
-75
11
67
21
-75
0
LINE
8
0
10
67
20
-75
11
67
21
-61
0
LINE
8
0
10
67
20
-61
11
53
21
-61
0
LINE
8
0
10
53
20
-61
11
53
21
-75
0
LINE
8
0
10
53
20
-56
11
67
21
-56
0
LINE
8
0
10
67
20
-56
11
67
21
-42
0
LINE
8
0
10
67
20
-42
11
53
21
-42
0
LINE
8
0
10
53
20
-42
11
53
21
-56
0
LINE
8
0
10
72
20
-75
11
86
21
-75
0
LINE
8
0
10
86
20
-75
11
86
21
-61
0
LINE
8
0
10
86
20
-61
11
72
21
-61
0
LINE
8
0
10
72
20
-61
11
72
21
-75
0
LINE
8
0
10
72
20
-56
11
86
21
-56
0
LINE
8
0
10
86
20
-56
11
86
21
-42
0
LINE
8
0
10
86
20
-42
11
72
21
-42
0
LINE
8
0
10
72
20
-42
11
72
21
-56
0
LINE
8
0
10
91
20
-75
11
105
21
-75
0
LINE
8
0
10
105
20
-75
11
105
21
-61
0
LINE
8
0
10
105
20
-61
11
91
21
-61
0
LINE
8
0
10
91
20
-61
11
91
21
-75
0
LINE
8
0
10
91
20
-56
11
105
21
-56
0
LINE
8
0
10
105
20
-56
11
105
21
-42
0
LINE
8
0
10
105
20
-42
11
91
21
-42
0
LINE
8
0
10
91
20
-42
11
91
21
-56
0
CIRCLE
8
0
10
46.7
20
-35.7
40
1.1
0
CIRCLE
8
0
10
111.3
20
-35.7
40
1.1
0
CIRCLE
8
0
10
46.7
20
-87
40
1.1
0
CIRCLE
8
0
10
111.3
20
-87
40
1.1
0
CIRCLE
8
0
10
46.7
20
-138.3
40
1.1
0
CIRCLE
8
0
10
111.3
20
-138.3
40
1.1
0
LINE
8
0
10
51.5
20
-134.5
11
106.5
21
-134.5
0
LINE
8
0
10
107.5
20
-133.5
11
107.5
21
-40.5
0
LINE
8
0
10
106.5
20
-39.5
11
51.5
21
-39.5
0
LINE
8
0
10
50.5
20
-40.5
11
50.5
21
-133.5
0
ARC
8
0
10
106.5
20
-133.5
40
1
50
270
51
0
0
ARC
8
0
10
106.5
20
-40.5
40
1
50
0
51
90
0
ARC
8
0
10
51.5
20
-40.5
40
1
50
90
51
180
0
ARC
8
0
10
51.5
20
-133.5
40
1
50
180
51
270
0
LINE
8
0
10
51.25
20
-134.75
11
106.75
21
-134.75
0
LINE
8
0
10
107.75
20
-133.75
11
107.75
21
-40.25
0
LINE
8
0
10
51.25
20
-39.25
11
106.75
21
-39.25
0
LINE
8
0
10
50.25
20
-133.75
11
50.25
21
-40.25
0
ARC
8
0
10
106.75
20
-133.75
40
1
50
270
51
630
0
ARC
8
0
10
106.75
20
-40.25
40
1
50
0
51
360
0
ARC
8
0
10
51.25
20
-40.25
40
1
50
90
51
450
0
ARC
8
0
10
51.25
20
-133.75
40
1
50
180
51
540
0
CIRCLE
8
0
10
46.7
20
-35.7
40
2.05
0
CIRCLE
8
0
10
111.3
20
-35.7
40
2.05
0
CIRCLE
8
0
10
46.7
20
-87
40
2.05
0
CIRCLE
8
0
10
111.3
20
-87
40
2.05
0
CIRCLE
8
0
10
46.7
20
-138.3
40
2.05
0
CIRCLE
8
0
10
111.3
20
-138.3
40
2.05
0
LINE
8
0
10
88.9
20
-59.5
11
88.9
21
-38.5
0
ARC
8
0
10
87.9
20
-38.5
40
1
50
0
51
360
0
LINE
8
0
10
84.5
20
-37.5
11
87.9
21
-37.5
0
LINE
8
0
10
70.1
20
-37.5
11
73.5
21
-37.5
0
ARC
8
0
10
70.1
20
-38.5
40
1
50
90
51
450
0
LINE
8
0
10
69.1
20
-59.5
11
69.1
21
-38.5
0
LINE
8
0
10
85.5
20
-37.5
11
85.5
21
-32.375
0
LINE
8
0
10
72.5
20
-32.375
11
72.5
21
-37.5
0
LINE
8
0
10
70.1
20
-60.5
11
87.9
21
-60.5
0
ARC
8
0
10
87.9
20
-59.5
40
1
50
270
51
360
0
LINE
8
0
10
84.5
20
-37.5
11
84.5
21
-37.0785
0
ARC
8
0
10
83.5
20
-37.0785
40
1
50
0
51
90
0
LINE
8
0
10
83.5
20
-36.0785
11
74.5
21
-36.0785
0
ARC
8
0
10
74.5
20
-37.0785
40
1
50
90
51
180
0
LINE
8
0
10
73.5
20
-37.0785
11
73.5
21
-37.5
0
ARC
8
0
10
70.1
20
-59.5
40
1
50
180
51
270
0
LINE
8
0
10
74.5
20
-44.4285
11
83.5
21
-44.4285
0
LINE
8
0
10
83.5
20
-44.4285
11
83.5
21
-37.0785
0
LINE
8
0
10
83.5
20
-37.0785
11
74.5
21
-37.0785
0
LINE
8
0
10
74.5
20
-37.0785
11
74.5
21
-44.4285
0
LINE
8
0
10
70.1
20
-59.5
11
87.9
21
-59.5
0
LINE
8
0
10
87.9
20
-59.5
11
87.9
21
-38.5
0
LINE
8
0
10
87.9
20
-38.5
11
70.1
21
-38.5
0
LINE
8
0
10
70.1
20
-38.5
11
70.1
21
-59.5
0
ENDSEC
0
EOF