<svg width="73mm" height="111mm" viewBox="0 0 73 111" xmlns="http://www.w3.org/2000/svg"><g id="svgGroup" stroke-linecap="round" fill-rule="evenodd" font-size="9pt" stroke="#000" stroke-width="0.25mm" fill="none" style="stroke:#000;stroke-width:0.25mm;fill:none"><path d="M 2 111 L 71 111 A 2 2 0 0 0 73 109 L 73 2 A 2 2 0 0 0 71 0 L 2 0 A 2 2 0 0 0 0 2 L 0 109 A 2 2 0 0 0 2 111 Z M 9 104 L 64 104 A 2 2 0 0 0 66 102 L 66 9 A 2 2 0 0 0 64 7 L 9 7 A 2 2 0 0 0 7 9 L 7 102 A 2 2 0 0 0 9 104 Z M 3.5 3.5 m -2.05 0 a 2.05 2.05 0 0 1 4.1 0 a 2.05 2.05 0 0 1 -4.1 0 z M 69.5 3.5 m -2.05 0 a 2.05 2.05 0 0 1 4.1 0 a 2.05 2.05 0 0 1 -4.1 0 z M 3.5 55.5 m -2.05 0 a 2.05 2.05 0 0 1 4.1 0 a 2.05 2.05 0 0 1 -4.1 0 z M 69.5 55.5 m -2.05 0 a 2.05 2.05 0 0 1 4.1 0 a 2.05 2.05 0 0 1 -4.1 0 z M 3.5 107.5 m -2.05 0 a 2.05 2.05 0 0 1 4.1 0 a 2.05 2.05 0 0 1 -4.1 0 z M 69.5 107.5 m -2.05 0 a 2.05 2.05 0 0 1 4.1 0 a 2.05 2.05 0 0 1 -4.1 0 z" vector-effect="non-scaling-stroke"/></g></svg>