<svg width="71.25mm" height="109.25mm" viewBox="0 0 71.25 109.25" xmlns="http://www.w3.org/2000/svg"><g id="svgGroup" stroke-linecap="round" fill-rule="evenodd" font-size="9pt" stroke="#000" stroke-width="0.25mm" fill="none" style="stroke:#000;stroke-width:0.25mm;fill:none"><path d="M 1.5 109.25 L 69.75 109.25 A 1.5 1.5 0 0 0 71.25 107.75 L 71.25 1.5 A 1.5 1.5 0 0 0 69.75 0 L 42.125 0 L 42.125 5.125 L 44.525 5.125 A 1 1 0 0 1 45.525 6.125 L 45.525 6.875 L 63.375 6.875 A 1 1 0 0 1 64.375 7.875 L 64.375 101.375 A 1 1 0 0 1 63.375 102.375 L 7.875 102.375 A 1 1 0 0 1 6.875 101.375 L 6.875 7.875 A 1 1 0 0 1 7.875 6.875 L 25.725 6.875 L 25.725 6.125 A 1 1 0 0 1 26.725 5.125 L 29.125 5.125 L 29.125 0 L 1.5 0 A 1.5 1.5 0 0 0 0 1.5 L 0 107.75 A 1.5 1.5 0 0 0 1.5 109.25 Z M 3.325 3.325 m -2.05 0 a 2.05 2.05 0 0 1 4.1 0 a 2.05 2.05 0 0 1 -4.1 0 z M 67.925 3.325 m -2.05 0 a 2.05 2.05 0 0 1 4.1 0 a 2.05 2.05 0 0 1 -4.1 0 z M 3.325 54.625 m -2.05 0 a 2.05 2.05 0 0 1 4.1 0 a 2.05 2.05 0 0 1 -4.1 0 z M 67.925 54.625 m -2.05 0 a 2.05 2.05 0 0 1 4.1 0 a 2.05 2.05 0 0 1 -4.1 0 z M 3.325 105.925 m -2.05 0 a 2.05 2.05 0 0 1 4.1 0 a 2.05 2.05 0 0 1 -4.1 0 z M 67.925 105.925 m -2.05 0 a 2.05 2.05 0 0 1 4.1 0 a 2.05 2.05 0 0 1 -4.1 0 z" vector-effect="non-scaling-stroke"/></g></svg>