0
SECTION
2
HEADER
9
$INSUNITS
70
4
0
ENDSEC
0
SECTION
2
TABLES
0
TABLE
2
LTYPE
0
LTYPE
72
65
70
64
2
CONTINUOUS
3
______
73
0
40
0
0
ENDTAB
0
TABLE
2
LAYER
0
ENDTAB
0
ENDSEC
0
SECTION
2
ENTITIES
0
LINE
8
0
10
44.875
20
-141.625
11
113.125
21
-141.625
0
LINE
8
0
10
114.625
20
-140.125
11
114.625
21
-33.875
0
LINE
8
0
10
113.125
20
-32.375
11
85.5
21
-32.375
0
LINE
8
0
10
72.5
20
-32.375
11
44.875
21
-32.375
0
LINE
8
0
10
43.375
20
-33.875
11
43.375
21
-140.125
0
ARC
8
0
10
113.125
20
-140.125
40
1.5
50
270
51
0
0
ARC
8
0
10
113.125
20
-33.875
40
1.5
50
0
51
90
0
ARC
8
0
10
44.875
20
-33.875
40
1.5
50
90
51
180
0
ARC
8
0
10
44.875
20
-140.125
40
1.5
50
180
51
270
0
LINE
8
0
10
51.25
20
-134.75
11
106.75
21
-134.75
0
LINE
8
0
10
107.75
20
-133.75
11
107.75
21
-40.25
0
LINE
8
0
10
106.75
20
-39.25
11
88.9
21
-39.25
0
LINE
8
0
10
69.1
20
-39.25
11
51.25
21
-39.25
0
LINE
8
0
10
50.25
20
-40.25
11
50.25
21
-133.75
0
ARC
8
0
10
106.75
20
-133.75
40
1
50
270
51
0
0
ARC
8
0
10
106.75
20
-40.25
40
1
50
0
51
90
0
ARC
8
0
10
51.25
20
-40.25
40
1
50
90
51
180
0
ARC
8
0
10
51.25
20
-133.75
40
1
50
180
51
270
0
CIRCLE
8
0
10
46.7
20
-35.7
40
2.05
0
CIRCLE
8
0
10
111.3
20
-35.7
40
2.05
0
CIRCLE
8
0
10
46.7
20
-87
40
2.05
0
CIRCLE
8
0
10
111.3
20
-87
40
2.05
0
CIRCLE
8
0
10
46.7
20
-138.3
40
2.05
0
CIRCLE
8
0
10
111.3
20
-138.3
40
2.05
0
LINE
8
0
10
88.9
20
-39.25
11
88.9
21
-38.5
0
ARC
8
0
10
87.9
20
-38.5
40
1
50
0
51
90
0
LINE
8
0
10
87.9
20
-37.5
11
85.5
21
-37.5
0
LINE
8
0
10
72.5
20
-37.5
11
70.1
21
-37.5
0
ARC
8
0
10
70.1
20
-38.5
40
1
50
90
51
180
0
LINE
8
0
10
69.1
20
-38.5
11
69.1
21
-39.25
0
LINE
8
0
10
85.5
20
-37.5
11
85.5
21
-32.375
0
LINE
8
0
10
72.5
20
-32.375
11
72.5
21
-37.5
0
ENDSEC
0
EOF